%FSLAX45Y45*%
G04 Gerber Fmt 4.5, Leading zero omitted, Abs format (unit mm)*
G04 Created by KiCad (PCBNEW (5.1.2-1)-1) date 2020-04-26 14:53:32*
%MOMM*%
%LPD*%
G04 APERTURE LIST*
%ADD10C,0.050000*%
%ADD11C,0.200000*%
%ADD12C,0.300000*%
G04 APERTURE END LIST*
D10*
X8636000Y-10033000D02*
X8636000Y-10160000D01*
X17145000Y-10033000D02*
X8636000Y-10033000D01*
X17145000Y-14605000D02*
X17145000Y-10033000D01*
X8636000Y-14605000D02*
X17145000Y-14605000D01*
X8636000Y-14478000D02*
X8636000Y-14605000D01*
X8636000Y-14351000D02*
X8636000Y-14478000D01*
X8636000Y-10160000D02*
X8636000Y-14351000D01*
D11*
X9632000Y-14458000D02*
X9672000Y-14498000D01*
X9672000Y-14458000D02*
X9632000Y-14498000D01*
X10267000Y-13442000D02*
X10307000Y-13482000D01*
X10307000Y-13442000D02*
X10267000Y-13482000D01*
X10521000Y-14458000D02*
X10561000Y-14498000D01*
X10561000Y-14458000D02*
X10521000Y-14498000D01*
X10775000Y-12934000D02*
X10815000Y-12974000D01*
X10815000Y-12934000D02*
X10775000Y-12974000D01*
X10775000Y-13061000D02*
X10815000Y-13101000D01*
X10815000Y-13061000D02*
X10775000Y-13101000D01*
X10775000Y-13442000D02*
X10815000Y-13482000D01*
X10815000Y-13442000D02*
X10775000Y-13482000D01*
X10775000Y-13569000D02*
X10815000Y-13609000D01*
X10815000Y-13569000D02*
X10775000Y-13609000D01*
X10902000Y-13315000D02*
X10942000Y-13355000D01*
X10942000Y-13315000D02*
X10902000Y-13355000D01*
X11156000Y-12956462D02*
X11196000Y-12996462D01*
X11196000Y-12956462D02*
X11156000Y-12996462D01*
X11283000Y-12553000D02*
X11323000Y-12593000D01*
X11323000Y-12553000D02*
X11283000Y-12593000D01*
X11283000Y-13061000D02*
X11323000Y-13101000D01*
X11323000Y-13061000D02*
X11283000Y-13101000D01*
X11283000Y-13696000D02*
X11323000Y-13736000D01*
X11323000Y-13696000D02*
X11283000Y-13736000D01*
X11283000Y-13823000D02*
X11323000Y-13863000D01*
X11323000Y-13823000D02*
X11283000Y-13863000D01*
X11283000Y-14077000D02*
X11323000Y-14117000D01*
X11323000Y-14077000D02*
X11283000Y-14117000D01*
X11410000Y-12934000D02*
X11450000Y-12974000D01*
X11450000Y-12934000D02*
X11410000Y-12974000D01*
X12807000Y-12045000D02*
X12847000Y-12085000D01*
X12847000Y-12045000D02*
X12807000Y-12085000D01*
X12807000Y-12680000D02*
X12847000Y-12720000D01*
X12847000Y-12680000D02*
X12807000Y-12720000D01*
X12807000Y-14458000D02*
X12847000Y-14498000D01*
X12847000Y-14458000D02*
X12807000Y-14498000D01*
X12934000Y-13188000D02*
X12974000Y-13228000D01*
X12974000Y-13188000D02*
X12934000Y-13228000D01*
X12934000Y-13823000D02*
X12974000Y-13863000D01*
X12974000Y-13823000D02*
X12934000Y-13863000D01*
X13061000Y-12553000D02*
X13101000Y-12593000D01*
X13101000Y-12553000D02*
X13061000Y-12593000D01*
X13061000Y-13061000D02*
X13101000Y-13101000D01*
X13101000Y-13061000D02*
X13061000Y-13101000D01*
X13315000Y-12553000D02*
X13355000Y-12593000D01*
X13355000Y-12553000D02*
X13315000Y-12593000D01*
X13315000Y-13315000D02*
X13355000Y-13355000D01*
X13355000Y-13315000D02*
X13315000Y-13355000D01*
X13823000Y-12045000D02*
X13863000Y-12085000D01*
X13863000Y-12045000D02*
X13823000Y-12085000D01*
X13823000Y-12426000D02*
X13863000Y-12466000D01*
X13863000Y-12426000D02*
X13823000Y-12466000D01*
X13950000Y-13061000D02*
X13990000Y-13101000D01*
X13990000Y-13061000D02*
X13950000Y-13101000D01*
X13950000Y-13315000D02*
X13990000Y-13355000D01*
X13990000Y-13315000D02*
X13950000Y-13355000D01*
X13950000Y-13950000D02*
X13990000Y-13990000D01*
X13990000Y-13950000D02*
X13950000Y-13990000D01*
X14077000Y-11029000D02*
X14117000Y-11069000D01*
X14117000Y-11029000D02*
X14077000Y-11069000D01*
X14077000Y-12172000D02*
X14117000Y-12212000D01*
X14117000Y-12172000D02*
X14077000Y-12212000D01*
X14204000Y-13569000D02*
X14244000Y-13609000D01*
X14244000Y-13569000D02*
X14204000Y-13609000D01*
X14331000Y-12426000D02*
X14371000Y-12466000D01*
X14371000Y-12426000D02*
X14331000Y-12466000D01*
X14370071Y-13161425D02*
X14410071Y-13201425D01*
X14410071Y-13161425D02*
X14370071Y-13201425D01*
X14458000Y-13315000D02*
X14498000Y-13355000D01*
X14498000Y-13315000D02*
X14458000Y-13355000D01*
X14458000Y-13696000D02*
X14498000Y-13736000D01*
X14498000Y-13696000D02*
X14458000Y-13736000D01*
X14458000Y-14458000D02*
X14498000Y-14498000D01*
X14498000Y-14458000D02*
X14458000Y-14498000D01*
X14552940Y-13177077D02*
X14592940Y-13217077D01*
X14592940Y-13177077D02*
X14552940Y-13217077D01*
X14712000Y-12934000D02*
X14752000Y-12974000D01*
X14752000Y-12934000D02*
X14712000Y-12974000D01*
X14839000Y-13315000D02*
X14879000Y-13355000D01*
X14879000Y-13315000D02*
X14839000Y-13355000D01*
X14966000Y-12553000D02*
X15006000Y-12593000D01*
X15006000Y-12553000D02*
X14966000Y-12593000D01*
X14966000Y-13315000D02*
X15006000Y-13355000D01*
X15006000Y-13315000D02*
X14966000Y-13355000D01*
X15220000Y-13442000D02*
X15260000Y-13482000D01*
X15260000Y-13442000D02*
X15220000Y-13482000D01*
X15474000Y-13188000D02*
X15514000Y-13228000D01*
X15514000Y-13188000D02*
X15474000Y-13228000D01*
X15474000Y-13442000D02*
X15514000Y-13482000D01*
X15514000Y-13442000D02*
X15474000Y-13482000D01*
X15474000Y-13950000D02*
X15514000Y-13990000D01*
X15514000Y-13950000D02*
X15474000Y-13990000D01*
X15982000Y-13442000D02*
X16022000Y-13482000D01*
X16022000Y-13442000D02*
X15982000Y-13482000D01*
X15982000Y-13950000D02*
X16022000Y-13990000D01*
X16022000Y-13950000D02*
X15982000Y-13990000D01*
X16363000Y-12299000D02*
X16403000Y-12339000D01*
X16403000Y-12299000D02*
X16363000Y-12339000D01*
X16804005Y-14224000D02*
G75*
G03X16804005Y-14224000I-40005J0D01*
G01*
X16804005Y-13716000D02*
G75*
G03X16804005Y-13716000I-40005J0D01*
G01*
X9326000Y-12593000D02*
X9326000Y-12683000D01*
X9281000Y-12638000D02*
X9371000Y-12638000D01*
X9406000Y-12603000D02*
X9246000Y-12603000D01*
X9406000Y-12673000D02*
X9246000Y-12673000D01*
X9246000Y-12603000D02*
G75*
G03X9246000Y-12673000I0J-35000D01*
G01*
X9406000Y-12673000D02*
G75*
G03X9406000Y-12603000I0J35000D01*
G01*
X9326000Y-13733000D02*
X9326000Y-13823000D01*
X9281000Y-13778000D02*
X9371000Y-13778000D01*
X9406000Y-13743000D02*
X9246000Y-13743000D01*
X9406000Y-13813000D02*
X9246000Y-13813000D01*
X9246000Y-13743000D02*
G75*
G03X9246000Y-13813000I0J-35000D01*
G01*
X9406000Y-13813000D02*
G75*
G03X9406000Y-13743000I0J35000D01*
G01*
X15786891Y-12611891D02*
X15786891Y-12534109D01*
X15709109Y-12534109D01*
X15709109Y-12611891D01*
X15786891Y-12611891D01*
X16802891Y-12611891D02*
X16802891Y-12534109D01*
X16725109Y-12534109D01*
X16725109Y-12611891D01*
X16802891Y-12611891D01*
X12319000Y-12673000D02*
X12419000Y-12573000D01*
X12319000Y-12473000D01*
X12219000Y-12573000D01*
X12319000Y-12673000D01*
X12319000Y-14451000D02*
X12419000Y-14351000D01*
X12319000Y-14251000D01*
X12219000Y-14351000D01*
X12319000Y-14451000D01*
X9144000Y-11276000D02*
X9244000Y-11176000D01*
X9144000Y-11076000D01*
X9044000Y-11176000D01*
X9144000Y-11276000D01*
X16344000Y-11276000D02*
X16444000Y-11176000D01*
X16344000Y-11076000D01*
X16244000Y-11176000D01*
X16344000Y-11276000D01*
X13013000Y-14212000D02*
X13103000Y-14302000D01*
X13103000Y-14212000D02*
X13013000Y-14302000D01*
X13103000Y-14257000D02*
G75*
G03X13103000Y-14257000I-45000J0D01*
G01*
X13313000Y-14212000D02*
X13403000Y-14302000D01*
X13403000Y-14212000D02*
X13313000Y-14302000D01*
X13403000Y-14257000D02*
G75*
G03X13403000Y-14257000I-45000J0D01*
G01*
X9271000Y-12923000D02*
X9381000Y-13033000D01*
X9381000Y-12923000D02*
X9271000Y-13033000D01*
X9326000Y-12923000D02*
X9326000Y-13033000D01*
X9271000Y-12978000D02*
X9381000Y-12978000D01*
X9271000Y-13383000D02*
X9381000Y-13493000D01*
X9381000Y-13383000D02*
X9271000Y-13493000D01*
X9326000Y-13383000D02*
X9326000Y-13493000D01*
X9271000Y-13438000D02*
X9381000Y-13438000D01*
X9848500Y-11016000D02*
X10168500Y-11336000D01*
X10168500Y-11016000D02*
X9848500Y-11336000D01*
X10121638Y-11289138D02*
X10121638Y-11062862D01*
X9895362Y-11062862D01*
X9895362Y-11289138D01*
X10121638Y-11289138D01*
X15409500Y-11016000D02*
X15729500Y-11336000D01*
X15729500Y-11016000D02*
X15409500Y-11336000D01*
X15682638Y-11289138D02*
X15682638Y-11062862D01*
X15456362Y-11062862D01*
X15456362Y-11289138D01*
X15682638Y-11289138D01*
D12*
X8919928Y-15073214D02*
X8919928Y-14773214D01*
X8991357Y-14773214D01*
X9034214Y-14787500D01*
X9062786Y-14816071D01*
X9077071Y-14844643D01*
X9091357Y-14901786D01*
X9091357Y-14944643D01*
X9077071Y-15001786D01*
X9062786Y-15030357D01*
X9034214Y-15058929D01*
X8991357Y-15073214D01*
X8919928Y-15073214D01*
X9219928Y-15073214D02*
X9219928Y-14873214D01*
X9219928Y-14930357D02*
X9234214Y-14901786D01*
X9248500Y-14887500D01*
X9277071Y-14873214D01*
X9305643Y-14873214D01*
X9405643Y-15073214D02*
X9405643Y-14873214D01*
X9405643Y-14773214D02*
X9391357Y-14787500D01*
X9405643Y-14801786D01*
X9419928Y-14787500D01*
X9405643Y-14773214D01*
X9405643Y-14801786D01*
X9591357Y-15073214D02*
X9562786Y-15058929D01*
X9548500Y-15030357D01*
X9548500Y-14773214D01*
X9748500Y-15073214D02*
X9719928Y-15058929D01*
X9705643Y-15030357D01*
X9705643Y-14773214D01*
X10091357Y-15073214D02*
X10091357Y-14773214D01*
X10191357Y-14987500D01*
X10291357Y-14773214D01*
X10291357Y-15073214D01*
X10562786Y-15073214D02*
X10562786Y-14916071D01*
X10548500Y-14887500D01*
X10519928Y-14873214D01*
X10462786Y-14873214D01*
X10434214Y-14887500D01*
X10562786Y-15058929D02*
X10534214Y-15073214D01*
X10462786Y-15073214D01*
X10434214Y-15058929D01*
X10419928Y-15030357D01*
X10419928Y-15001786D01*
X10434214Y-14973214D01*
X10462786Y-14958929D01*
X10534214Y-14958929D01*
X10562786Y-14944643D01*
X10705643Y-14873214D02*
X10705643Y-15173214D01*
X10705643Y-14887500D02*
X10734214Y-14873214D01*
X10791357Y-14873214D01*
X10819928Y-14887500D01*
X10834214Y-14901786D01*
X10848500Y-14930357D01*
X10848500Y-15016071D01*
X10834214Y-15044643D01*
X10819928Y-15058929D01*
X10791357Y-15073214D01*
X10734214Y-15073214D01*
X10705643Y-15058929D01*
X10977071Y-15044643D02*
X10991357Y-15058929D01*
X10977071Y-15073214D01*
X10962786Y-15058929D01*
X10977071Y-15044643D01*
X10977071Y-15073214D01*
X10977071Y-14887500D02*
X10991357Y-14901786D01*
X10977071Y-14916071D01*
X10962786Y-14901786D01*
X10977071Y-14887500D01*
X10977071Y-14916071D01*
X8593500Y-15547500D02*
X8633500Y-15587500D01*
X8633500Y-15547500D02*
X8593500Y-15587500D01*
X8977071Y-15403214D02*
X9005643Y-15403214D01*
X9034214Y-15417500D01*
X9048500Y-15431786D01*
X9062786Y-15460357D01*
X9077071Y-15517500D01*
X9077071Y-15588929D01*
X9062786Y-15646071D01*
X9048500Y-15674643D01*
X9034214Y-15688929D01*
X9005643Y-15703214D01*
X8977071Y-15703214D01*
X8948500Y-15688929D01*
X8934214Y-15674643D01*
X8919928Y-15646071D01*
X8905643Y-15588929D01*
X8905643Y-15517500D01*
X8919928Y-15460357D01*
X8934214Y-15431786D01*
X8948500Y-15417500D01*
X8977071Y-15403214D01*
X9205643Y-15674643D02*
X9219928Y-15688929D01*
X9205643Y-15703214D01*
X9191357Y-15688929D01*
X9205643Y-15674643D01*
X9205643Y-15703214D01*
X9477071Y-15503214D02*
X9477071Y-15703214D01*
X9405643Y-15388929D02*
X9334214Y-15603214D01*
X9519928Y-15603214D01*
X9691357Y-15403214D02*
X9719928Y-15403214D01*
X9748500Y-15417500D01*
X9762786Y-15431786D01*
X9777071Y-15460357D01*
X9791357Y-15517500D01*
X9791357Y-15588929D01*
X9777071Y-15646071D01*
X9762786Y-15674643D01*
X9748500Y-15688929D01*
X9719928Y-15703214D01*
X9691357Y-15703214D01*
X9662786Y-15688929D01*
X9648500Y-15674643D01*
X9634214Y-15646071D01*
X9619928Y-15588929D01*
X9619928Y-15517500D01*
X9634214Y-15460357D01*
X9648500Y-15431786D01*
X9662786Y-15417500D01*
X9691357Y-15403214D01*
X9919928Y-15703214D02*
X9919928Y-15503214D01*
X9919928Y-15531786D02*
X9934214Y-15517500D01*
X9962786Y-15503214D01*
X10005643Y-15503214D01*
X10034214Y-15517500D01*
X10048500Y-15546071D01*
X10048500Y-15703214D01*
X10048500Y-15546071D02*
X10062786Y-15517500D01*
X10091357Y-15503214D01*
X10134214Y-15503214D01*
X10162786Y-15517500D01*
X10177071Y-15546071D01*
X10177071Y-15703214D01*
X10319928Y-15703214D02*
X10319928Y-15503214D01*
X10319928Y-15531786D02*
X10334214Y-15517500D01*
X10362786Y-15503214D01*
X10405643Y-15503214D01*
X10434214Y-15517500D01*
X10448500Y-15546071D01*
X10448500Y-15703214D01*
X10448500Y-15546071D02*
X10462786Y-15517500D01*
X10491357Y-15503214D01*
X10534214Y-15503214D01*
X10562786Y-15517500D01*
X10577071Y-15546071D01*
X10577071Y-15703214D01*
X11162786Y-15388929D02*
X10905643Y-15774643D01*
X11548500Y-15403214D02*
X11577071Y-15403214D01*
X11605643Y-15417500D01*
X11619928Y-15431786D01*
X11634214Y-15460357D01*
X11648500Y-15517500D01*
X11648500Y-15588929D01*
X11634214Y-15646071D01*
X11619928Y-15674643D01*
X11605643Y-15688929D01*
X11577071Y-15703214D01*
X11548500Y-15703214D01*
X11519928Y-15688929D01*
X11505643Y-15674643D01*
X11491357Y-15646071D01*
X11477071Y-15588929D01*
X11477071Y-15517500D01*
X11491357Y-15460357D01*
X11505643Y-15431786D01*
X11519928Y-15417500D01*
X11548500Y-15403214D01*
X11777071Y-15674643D02*
X11791357Y-15688929D01*
X11777071Y-15703214D01*
X11762786Y-15688929D01*
X11777071Y-15674643D01*
X11777071Y-15703214D01*
X11977071Y-15403214D02*
X12005643Y-15403214D01*
X12034214Y-15417500D01*
X12048500Y-15431786D01*
X12062786Y-15460357D01*
X12077071Y-15517500D01*
X12077071Y-15588929D01*
X12062786Y-15646071D01*
X12048500Y-15674643D01*
X12034214Y-15688929D01*
X12005643Y-15703214D01*
X11977071Y-15703214D01*
X11948500Y-15688929D01*
X11934214Y-15674643D01*
X11919928Y-15646071D01*
X11905643Y-15588929D01*
X11905643Y-15517500D01*
X11919928Y-15460357D01*
X11934214Y-15431786D01*
X11948500Y-15417500D01*
X11977071Y-15403214D01*
X12362786Y-15703214D02*
X12191357Y-15703214D01*
X12277071Y-15703214D02*
X12277071Y-15403214D01*
X12248500Y-15446071D01*
X12219928Y-15474643D01*
X12191357Y-15488929D01*
X12619928Y-15403214D02*
X12562786Y-15403214D01*
X12534214Y-15417500D01*
X12519928Y-15431786D01*
X12491357Y-15474643D01*
X12477071Y-15531786D01*
X12477071Y-15646071D01*
X12491357Y-15674643D01*
X12505643Y-15688929D01*
X12534214Y-15703214D01*
X12591357Y-15703214D01*
X12619928Y-15688929D01*
X12634214Y-15674643D01*
X12648500Y-15646071D01*
X12648500Y-15574643D01*
X12634214Y-15546071D01*
X12619928Y-15531786D01*
X12591357Y-15517500D01*
X12534214Y-15517500D01*
X12505643Y-15531786D01*
X12491357Y-15546071D01*
X12477071Y-15574643D01*
X12762786Y-15403214D02*
X12762786Y-15460357D01*
X12877071Y-15403214D02*
X12877071Y-15460357D01*
X13319928Y-15817500D02*
X13305643Y-15803214D01*
X13277071Y-15760357D01*
X13262786Y-15731786D01*
X13248500Y-15688929D01*
X13234214Y-15617500D01*
X13234214Y-15560357D01*
X13248500Y-15488929D01*
X13262786Y-15446071D01*
X13277071Y-15417500D01*
X13305643Y-15374643D01*
X13319928Y-15360357D01*
X13562786Y-15503214D02*
X13562786Y-15703214D01*
X13491357Y-15388929D02*
X13419928Y-15603214D01*
X13605643Y-15603214D01*
X13734214Y-15703214D02*
X13791357Y-15703214D01*
X13819928Y-15688929D01*
X13834214Y-15674643D01*
X13862786Y-15631786D01*
X13877071Y-15574643D01*
X13877071Y-15460357D01*
X13862786Y-15431786D01*
X13848500Y-15417500D01*
X13819928Y-15403214D01*
X13762786Y-15403214D01*
X13734214Y-15417500D01*
X13719928Y-15431786D01*
X13705643Y-15460357D01*
X13705643Y-15531786D01*
X13719928Y-15560357D01*
X13734214Y-15574643D01*
X13762786Y-15588929D01*
X13819928Y-15588929D01*
X13848500Y-15574643D01*
X13862786Y-15560357D01*
X13877071Y-15531786D01*
X14234214Y-15703214D02*
X14234214Y-15403214D01*
X14362786Y-15703214D02*
X14362786Y-15546071D01*
X14348500Y-15517500D01*
X14319928Y-15503214D01*
X14277071Y-15503214D01*
X14248500Y-15517500D01*
X14234214Y-15531786D01*
X14548500Y-15703214D02*
X14519928Y-15688929D01*
X14505643Y-15674643D01*
X14491357Y-15646071D01*
X14491357Y-15560357D01*
X14505643Y-15531786D01*
X14519928Y-15517500D01*
X14548500Y-15503214D01*
X14591357Y-15503214D01*
X14619928Y-15517500D01*
X14634214Y-15531786D01*
X14648500Y-15560357D01*
X14648500Y-15646071D01*
X14634214Y-15674643D01*
X14619928Y-15688929D01*
X14591357Y-15703214D01*
X14548500Y-15703214D01*
X14819928Y-15703214D02*
X14791357Y-15688929D01*
X14777071Y-15660357D01*
X14777071Y-15403214D01*
X15048500Y-15688929D02*
X15019928Y-15703214D01*
X14962786Y-15703214D01*
X14934214Y-15688929D01*
X14919928Y-15660357D01*
X14919928Y-15546071D01*
X14934214Y-15517500D01*
X14962786Y-15503214D01*
X15019928Y-15503214D01*
X15048500Y-15517500D01*
X15062786Y-15546071D01*
X15062786Y-15574643D01*
X14919928Y-15603214D01*
X15177071Y-15688929D02*
X15205643Y-15703214D01*
X15262786Y-15703214D01*
X15291357Y-15688929D01*
X15305643Y-15660357D01*
X15305643Y-15646071D01*
X15291357Y-15617500D01*
X15262786Y-15603214D01*
X15219928Y-15603214D01*
X15191357Y-15588929D01*
X15177071Y-15560357D01*
X15177071Y-15546071D01*
X15191357Y-15517500D01*
X15219928Y-15503214D01*
X15262786Y-15503214D01*
X15291357Y-15517500D01*
X15405643Y-15817500D02*
X15419928Y-15803214D01*
X15448500Y-15760357D01*
X15462786Y-15731786D01*
X15477071Y-15688929D01*
X15491357Y-15617500D01*
X15491357Y-15560357D01*
X15477071Y-15488929D01*
X15462786Y-15446071D01*
X15448500Y-15417500D01*
X15419928Y-15374643D01*
X15405643Y-15360357D01*
X8633500Y-15963500D02*
G75*
G03X8633500Y-15963500I-40005J0D01*
G01*
X8977071Y-15799214D02*
X9005643Y-15799214D01*
X9034214Y-15813500D01*
X9048500Y-15827786D01*
X9062786Y-15856357D01*
X9077071Y-15913500D01*
X9077071Y-15984929D01*
X9062786Y-16042071D01*
X9048500Y-16070643D01*
X9034214Y-16084929D01*
X9005643Y-16099214D01*
X8977071Y-16099214D01*
X8948500Y-16084929D01*
X8934214Y-16070643D01*
X8919928Y-16042071D01*
X8905643Y-15984929D01*
X8905643Y-15913500D01*
X8919928Y-15856357D01*
X8934214Y-15827786D01*
X8948500Y-15813500D01*
X8977071Y-15799214D01*
X9205643Y-16070643D02*
X9219928Y-16084929D01*
X9205643Y-16099214D01*
X9191357Y-16084929D01*
X9205643Y-16070643D01*
X9205643Y-16099214D01*
X9391357Y-15927786D02*
X9362786Y-15913500D01*
X9348500Y-15899214D01*
X9334214Y-15870643D01*
X9334214Y-15856357D01*
X9348500Y-15827786D01*
X9362786Y-15813500D01*
X9391357Y-15799214D01*
X9448500Y-15799214D01*
X9477071Y-15813500D01*
X9491357Y-15827786D01*
X9505643Y-15856357D01*
X9505643Y-15870643D01*
X9491357Y-15899214D01*
X9477071Y-15913500D01*
X9448500Y-15927786D01*
X9391357Y-15927786D01*
X9362786Y-15942071D01*
X9348500Y-15956357D01*
X9334214Y-15984929D01*
X9334214Y-16042071D01*
X9348500Y-16070643D01*
X9362786Y-16084929D01*
X9391357Y-16099214D01*
X9448500Y-16099214D01*
X9477071Y-16084929D01*
X9491357Y-16070643D01*
X9505643Y-16042071D01*
X9505643Y-15984929D01*
X9491357Y-15956357D01*
X9477071Y-15942071D01*
X9448500Y-15927786D01*
X9691357Y-15799214D02*
X9719928Y-15799214D01*
X9748500Y-15813500D01*
X9762786Y-15827786D01*
X9777071Y-15856357D01*
X9791357Y-15913500D01*
X9791357Y-15984929D01*
X9777071Y-16042071D01*
X9762786Y-16070643D01*
X9748500Y-16084929D01*
X9719928Y-16099214D01*
X9691357Y-16099214D01*
X9662786Y-16084929D01*
X9648500Y-16070643D01*
X9634214Y-16042071D01*
X9619928Y-15984929D01*
X9619928Y-15913500D01*
X9634214Y-15856357D01*
X9648500Y-15827786D01*
X9662786Y-15813500D01*
X9691357Y-15799214D01*
X9919928Y-16099214D02*
X9919928Y-15899214D01*
X9919928Y-15927786D02*
X9934214Y-15913500D01*
X9962786Y-15899214D01*
X10005643Y-15899214D01*
X10034214Y-15913500D01*
X10048500Y-15942071D01*
X10048500Y-16099214D01*
X10048500Y-15942071D02*
X10062786Y-15913500D01*
X10091357Y-15899214D01*
X10134214Y-15899214D01*
X10162786Y-15913500D01*
X10177071Y-15942071D01*
X10177071Y-16099214D01*
X10319928Y-16099214D02*
X10319928Y-15899214D01*
X10319928Y-15927786D02*
X10334214Y-15913500D01*
X10362786Y-15899214D01*
X10405643Y-15899214D01*
X10434214Y-15913500D01*
X10448500Y-15942071D01*
X10448500Y-16099214D01*
X10448500Y-15942071D02*
X10462786Y-15913500D01*
X10491357Y-15899214D01*
X10534214Y-15899214D01*
X10562786Y-15913500D01*
X10577071Y-15942071D01*
X10577071Y-16099214D01*
X11162786Y-15784929D02*
X10905643Y-16170643D01*
X11548500Y-15799214D02*
X11577071Y-15799214D01*
X11605643Y-15813500D01*
X11619928Y-15827786D01*
X11634214Y-15856357D01*
X11648500Y-15913500D01*
X11648500Y-15984929D01*
X11634214Y-16042071D01*
X11619928Y-16070643D01*
X11605643Y-16084929D01*
X11577071Y-16099214D01*
X11548500Y-16099214D01*
X11519928Y-16084929D01*
X11505643Y-16070643D01*
X11491357Y-16042071D01*
X11477071Y-15984929D01*
X11477071Y-15913500D01*
X11491357Y-15856357D01*
X11505643Y-15827786D01*
X11519928Y-15813500D01*
X11548500Y-15799214D01*
X11777071Y-16070643D02*
X11791357Y-16084929D01*
X11777071Y-16099214D01*
X11762786Y-16084929D01*
X11777071Y-16070643D01*
X11777071Y-16099214D01*
X11977071Y-15799214D02*
X12005643Y-15799214D01*
X12034214Y-15813500D01*
X12048500Y-15827786D01*
X12062786Y-15856357D01*
X12077071Y-15913500D01*
X12077071Y-15984929D01*
X12062786Y-16042071D01*
X12048500Y-16070643D01*
X12034214Y-16084929D01*
X12005643Y-16099214D01*
X11977071Y-16099214D01*
X11948500Y-16084929D01*
X11934214Y-16070643D01*
X11919928Y-16042071D01*
X11905643Y-15984929D01*
X11905643Y-15913500D01*
X11919928Y-15856357D01*
X11934214Y-15827786D01*
X11948500Y-15813500D01*
X11977071Y-15799214D01*
X12177071Y-15799214D02*
X12362786Y-15799214D01*
X12262786Y-15913500D01*
X12305643Y-15913500D01*
X12334214Y-15927786D01*
X12348500Y-15942071D01*
X12362786Y-15970643D01*
X12362786Y-16042071D01*
X12348500Y-16070643D01*
X12334214Y-16084929D01*
X12305643Y-16099214D01*
X12219928Y-16099214D01*
X12191357Y-16084929D01*
X12177071Y-16070643D01*
X12477071Y-15827786D02*
X12491357Y-15813500D01*
X12519928Y-15799214D01*
X12591357Y-15799214D01*
X12619928Y-15813500D01*
X12634214Y-15827786D01*
X12648500Y-15856357D01*
X12648500Y-15884929D01*
X12634214Y-15927786D01*
X12462786Y-16099214D01*
X12648500Y-16099214D01*
X12762786Y-15799214D02*
X12762786Y-15856357D01*
X12877071Y-15799214D02*
X12877071Y-15856357D01*
X13319928Y-16213500D02*
X13305643Y-16199214D01*
X13277071Y-16156357D01*
X13262786Y-16127786D01*
X13248500Y-16084929D01*
X13234214Y-16013500D01*
X13234214Y-15956357D01*
X13248500Y-15884929D01*
X13262786Y-15842071D01*
X13277071Y-15813500D01*
X13305643Y-15770643D01*
X13319928Y-15756357D01*
X13419928Y-15827786D02*
X13434214Y-15813500D01*
X13462786Y-15799214D01*
X13534214Y-15799214D01*
X13562786Y-15813500D01*
X13577071Y-15827786D01*
X13591357Y-15856357D01*
X13591357Y-15884929D01*
X13577071Y-15927786D01*
X13405643Y-16099214D01*
X13591357Y-16099214D01*
X13948500Y-16099214D02*
X13948500Y-15799214D01*
X14077071Y-16099214D02*
X14077071Y-15942071D01*
X14062786Y-15913500D01*
X14034214Y-15899214D01*
X13991357Y-15899214D01*
X13962786Y-15913500D01*
X13948500Y-15927786D01*
X14262786Y-16099214D02*
X14234214Y-16084929D01*
X14219928Y-16070643D01*
X14205643Y-16042071D01*
X14205643Y-15956357D01*
X14219928Y-15927786D01*
X14234214Y-15913500D01*
X14262786Y-15899214D01*
X14305643Y-15899214D01*
X14334214Y-15913500D01*
X14348500Y-15927786D01*
X14362786Y-15956357D01*
X14362786Y-16042071D01*
X14348500Y-16070643D01*
X14334214Y-16084929D01*
X14305643Y-16099214D01*
X14262786Y-16099214D01*
X14534214Y-16099214D02*
X14505643Y-16084929D01*
X14491357Y-16056357D01*
X14491357Y-15799214D01*
X14762786Y-16084929D02*
X14734214Y-16099214D01*
X14677071Y-16099214D01*
X14648500Y-16084929D01*
X14634214Y-16056357D01*
X14634214Y-15942071D01*
X14648500Y-15913500D01*
X14677071Y-15899214D01*
X14734214Y-15899214D01*
X14762786Y-15913500D01*
X14777071Y-15942071D01*
X14777071Y-15970643D01*
X14634214Y-15999214D01*
X14891357Y-16084929D02*
X14919928Y-16099214D01*
X14977071Y-16099214D01*
X15005643Y-16084929D01*
X15019928Y-16056357D01*
X15019928Y-16042071D01*
X15005643Y-16013500D01*
X14977071Y-15999214D01*
X14934214Y-15999214D01*
X14905643Y-15984929D01*
X14891357Y-15956357D01*
X14891357Y-15942071D01*
X14905643Y-15913500D01*
X14934214Y-15899214D01*
X14977071Y-15899214D01*
X15005643Y-15913500D01*
X15119928Y-16213500D02*
X15134214Y-16199214D01*
X15162786Y-16156357D01*
X15177071Y-16127786D01*
X15191357Y-16084929D01*
X15205643Y-16013500D01*
X15205643Y-15956357D01*
X15191357Y-15884929D01*
X15177071Y-15842071D01*
X15162786Y-15813500D01*
X15134214Y-15770643D01*
X15119928Y-15756357D01*
X8588500Y-16314500D02*
X8588500Y-16404500D01*
X8543500Y-16359500D02*
X8633500Y-16359500D01*
X8977071Y-16195214D02*
X9005643Y-16195214D01*
X9034214Y-16209500D01*
X9048500Y-16223786D01*
X9062786Y-16252357D01*
X9077071Y-16309500D01*
X9077071Y-16380929D01*
X9062786Y-16438071D01*
X9048500Y-16466643D01*
X9034214Y-16480929D01*
X9005643Y-16495214D01*
X8977071Y-16495214D01*
X8948500Y-16480929D01*
X8934214Y-16466643D01*
X8919928Y-16438071D01*
X8905643Y-16380929D01*
X8905643Y-16309500D01*
X8919928Y-16252357D01*
X8934214Y-16223786D01*
X8948500Y-16209500D01*
X8977071Y-16195214D01*
X9205643Y-16466643D02*
X9219928Y-16480929D01*
X9205643Y-16495214D01*
X9191357Y-16480929D01*
X9205643Y-16466643D01*
X9205643Y-16495214D01*
X9362786Y-16495214D02*
X9419928Y-16495214D01*
X9448500Y-16480929D01*
X9462786Y-16466643D01*
X9491357Y-16423786D01*
X9505643Y-16366643D01*
X9505643Y-16252357D01*
X9491357Y-16223786D01*
X9477071Y-16209500D01*
X9448500Y-16195214D01*
X9391357Y-16195214D01*
X9362786Y-16209500D01*
X9348500Y-16223786D01*
X9334214Y-16252357D01*
X9334214Y-16323786D01*
X9348500Y-16352357D01*
X9362786Y-16366643D01*
X9391357Y-16380929D01*
X9448500Y-16380929D01*
X9477071Y-16366643D01*
X9491357Y-16352357D01*
X9505643Y-16323786D01*
X9691357Y-16195214D02*
X9719928Y-16195214D01*
X9748500Y-16209500D01*
X9762786Y-16223786D01*
X9777071Y-16252357D01*
X9791357Y-16309500D01*
X9791357Y-16380929D01*
X9777071Y-16438071D01*
X9762786Y-16466643D01*
X9748500Y-16480929D01*
X9719928Y-16495214D01*
X9691357Y-16495214D01*
X9662786Y-16480929D01*
X9648500Y-16466643D01*
X9634214Y-16438071D01*
X9619928Y-16380929D01*
X9619928Y-16309500D01*
X9634214Y-16252357D01*
X9648500Y-16223786D01*
X9662786Y-16209500D01*
X9691357Y-16195214D01*
X9919928Y-16495214D02*
X9919928Y-16295214D01*
X9919928Y-16323786D02*
X9934214Y-16309500D01*
X9962786Y-16295214D01*
X10005643Y-16295214D01*
X10034214Y-16309500D01*
X10048500Y-16338071D01*
X10048500Y-16495214D01*
X10048500Y-16338071D02*
X10062786Y-16309500D01*
X10091357Y-16295214D01*
X10134214Y-16295214D01*
X10162786Y-16309500D01*
X10177071Y-16338071D01*
X10177071Y-16495214D01*
X10319928Y-16495214D02*
X10319928Y-16295214D01*
X10319928Y-16323786D02*
X10334214Y-16309500D01*
X10362786Y-16295214D01*
X10405643Y-16295214D01*
X10434214Y-16309500D01*
X10448500Y-16338071D01*
X10448500Y-16495214D01*
X10448500Y-16338071D02*
X10462786Y-16309500D01*
X10491357Y-16295214D01*
X10534214Y-16295214D01*
X10562786Y-16309500D01*
X10577071Y-16338071D01*
X10577071Y-16495214D01*
X11162786Y-16180929D02*
X10905643Y-16566643D01*
X11548500Y-16195214D02*
X11577071Y-16195214D01*
X11605643Y-16209500D01*
X11619928Y-16223786D01*
X11634214Y-16252357D01*
X11648500Y-16309500D01*
X11648500Y-16380929D01*
X11634214Y-16438071D01*
X11619928Y-16466643D01*
X11605643Y-16480929D01*
X11577071Y-16495214D01*
X11548500Y-16495214D01*
X11519928Y-16480929D01*
X11505643Y-16466643D01*
X11491357Y-16438071D01*
X11477071Y-16380929D01*
X11477071Y-16309500D01*
X11491357Y-16252357D01*
X11505643Y-16223786D01*
X11519928Y-16209500D01*
X11548500Y-16195214D01*
X11777071Y-16466643D02*
X11791357Y-16480929D01*
X11777071Y-16495214D01*
X11762786Y-16480929D01*
X11777071Y-16466643D01*
X11777071Y-16495214D01*
X11977071Y-16195214D02*
X12005643Y-16195214D01*
X12034214Y-16209500D01*
X12048500Y-16223786D01*
X12062786Y-16252357D01*
X12077071Y-16309500D01*
X12077071Y-16380929D01*
X12062786Y-16438071D01*
X12048500Y-16466643D01*
X12034214Y-16480929D01*
X12005643Y-16495214D01*
X11977071Y-16495214D01*
X11948500Y-16480929D01*
X11934214Y-16466643D01*
X11919928Y-16438071D01*
X11905643Y-16380929D01*
X11905643Y-16309500D01*
X11919928Y-16252357D01*
X11934214Y-16223786D01*
X11948500Y-16209500D01*
X11977071Y-16195214D01*
X12177071Y-16195214D02*
X12362786Y-16195214D01*
X12262786Y-16309500D01*
X12305643Y-16309500D01*
X12334214Y-16323786D01*
X12348500Y-16338071D01*
X12362786Y-16366643D01*
X12362786Y-16438071D01*
X12348500Y-16466643D01*
X12334214Y-16480929D01*
X12305643Y-16495214D01*
X12219928Y-16495214D01*
X12191357Y-16480929D01*
X12177071Y-16466643D01*
X12634214Y-16195214D02*
X12491357Y-16195214D01*
X12477071Y-16338071D01*
X12491357Y-16323786D01*
X12519928Y-16309500D01*
X12591357Y-16309500D01*
X12619928Y-16323786D01*
X12634214Y-16338071D01*
X12648500Y-16366643D01*
X12648500Y-16438071D01*
X12634214Y-16466643D01*
X12619928Y-16480929D01*
X12591357Y-16495214D01*
X12519928Y-16495214D01*
X12491357Y-16480929D01*
X12477071Y-16466643D01*
X12762786Y-16195214D02*
X12762786Y-16252357D01*
X12877071Y-16195214D02*
X12877071Y-16252357D01*
X13319928Y-16609500D02*
X13305643Y-16595214D01*
X13277071Y-16552357D01*
X13262786Y-16523786D01*
X13248500Y-16480929D01*
X13234214Y-16409500D01*
X13234214Y-16352357D01*
X13248500Y-16280929D01*
X13262786Y-16238071D01*
X13277071Y-16209500D01*
X13305643Y-16166643D01*
X13319928Y-16152357D01*
X13491357Y-16195214D02*
X13519928Y-16195214D01*
X13548500Y-16209500D01*
X13562786Y-16223786D01*
X13577071Y-16252357D01*
X13591357Y-16309500D01*
X13591357Y-16380929D01*
X13577071Y-16438071D01*
X13562786Y-16466643D01*
X13548500Y-16480929D01*
X13519928Y-16495214D01*
X13491357Y-16495214D01*
X13462786Y-16480929D01*
X13448500Y-16466643D01*
X13434214Y-16438071D01*
X13419928Y-16380929D01*
X13419928Y-16309500D01*
X13434214Y-16252357D01*
X13448500Y-16223786D01*
X13462786Y-16209500D01*
X13491357Y-16195214D01*
X13948500Y-16495214D02*
X13948500Y-16195214D01*
X14077071Y-16495214D02*
X14077071Y-16338071D01*
X14062786Y-16309500D01*
X14034214Y-16295214D01*
X13991357Y-16295214D01*
X13962786Y-16309500D01*
X13948500Y-16323786D01*
X14262786Y-16495214D02*
X14234214Y-16480929D01*
X14219928Y-16466643D01*
X14205643Y-16438071D01*
X14205643Y-16352357D01*
X14219928Y-16323786D01*
X14234214Y-16309500D01*
X14262786Y-16295214D01*
X14305643Y-16295214D01*
X14334214Y-16309500D01*
X14348500Y-16323786D01*
X14362786Y-16352357D01*
X14362786Y-16438071D01*
X14348500Y-16466643D01*
X14334214Y-16480929D01*
X14305643Y-16495214D01*
X14262786Y-16495214D01*
X14534214Y-16495214D02*
X14505643Y-16480929D01*
X14491357Y-16452357D01*
X14491357Y-16195214D01*
X14762786Y-16480929D02*
X14734214Y-16495214D01*
X14677071Y-16495214D01*
X14648500Y-16480929D01*
X14634214Y-16452357D01*
X14634214Y-16338071D01*
X14648500Y-16309500D01*
X14677071Y-16295214D01*
X14734214Y-16295214D01*
X14762786Y-16309500D01*
X14777071Y-16338071D01*
X14777071Y-16366643D01*
X14634214Y-16395214D01*
X14891357Y-16480929D02*
X14919928Y-16495214D01*
X14977071Y-16495214D01*
X15005643Y-16480929D01*
X15019928Y-16452357D01*
X15019928Y-16438071D01*
X15005643Y-16409500D01*
X14977071Y-16395214D01*
X14934214Y-16395214D01*
X14905643Y-16380929D01*
X14891357Y-16352357D01*
X14891357Y-16338071D01*
X14905643Y-16309500D01*
X14934214Y-16295214D01*
X14977071Y-16295214D01*
X15005643Y-16309500D01*
X15377071Y-16380929D02*
X15605643Y-16380929D01*
X15491357Y-16495214D02*
X15491357Y-16266643D01*
X15962786Y-16223786D02*
X15977071Y-16209500D01*
X16005643Y-16195214D01*
X16077071Y-16195214D01*
X16105643Y-16209500D01*
X16119928Y-16223786D01*
X16134214Y-16252357D01*
X16134214Y-16280929D01*
X16119928Y-16323786D01*
X15948500Y-16495214D01*
X16134214Y-16495214D01*
X16477071Y-16480929D02*
X16505643Y-16495214D01*
X16562786Y-16495214D01*
X16591357Y-16480929D01*
X16605643Y-16452357D01*
X16605643Y-16438071D01*
X16591357Y-16409500D01*
X16562786Y-16395214D01*
X16519928Y-16395214D01*
X16491357Y-16380929D01*
X16477071Y-16352357D01*
X16477071Y-16338071D01*
X16491357Y-16309500D01*
X16519928Y-16295214D01*
X16562786Y-16295214D01*
X16591357Y-16309500D01*
X16777071Y-16495214D02*
X16748500Y-16480929D01*
X16734214Y-16452357D01*
X16734214Y-16195214D01*
X16934214Y-16495214D02*
X16905643Y-16480929D01*
X16891357Y-16466643D01*
X16877071Y-16438071D01*
X16877071Y-16352357D01*
X16891357Y-16323786D01*
X16905643Y-16309500D01*
X16934214Y-16295214D01*
X16977071Y-16295214D01*
X17005643Y-16309500D01*
X17019928Y-16323786D01*
X17034214Y-16352357D01*
X17034214Y-16438071D01*
X17019928Y-16466643D01*
X17005643Y-16480929D01*
X16977071Y-16495214D01*
X16934214Y-16495214D01*
X17119928Y-16295214D02*
X17234214Y-16295214D01*
X17162786Y-16195214D02*
X17162786Y-16452357D01*
X17177071Y-16480929D01*
X17205643Y-16495214D01*
X17234214Y-16495214D01*
X17319928Y-16480929D02*
X17348500Y-16495214D01*
X17405643Y-16495214D01*
X17434214Y-16480929D01*
X17448500Y-16452357D01*
X17448500Y-16438071D01*
X17434214Y-16409500D01*
X17405643Y-16395214D01*
X17362786Y-16395214D01*
X17334214Y-16380929D01*
X17319928Y-16352357D01*
X17319928Y-16338071D01*
X17334214Y-16309500D01*
X17362786Y-16295214D01*
X17405643Y-16295214D01*
X17434214Y-16309500D01*
X17548500Y-16609500D02*
X17562786Y-16595214D01*
X17591357Y-16552357D01*
X17605643Y-16523786D01*
X17619928Y-16480929D01*
X17634214Y-16409500D01*
X17634214Y-16352357D01*
X17619928Y-16280929D01*
X17605643Y-16238071D01*
X17591357Y-16209500D01*
X17562786Y-16166643D01*
X17548500Y-16152357D01*
X8617391Y-16794391D02*
X8617391Y-16716609D01*
X8539609Y-16716609D01*
X8539609Y-16794391D01*
X8617391Y-16794391D01*
X9077071Y-16891214D02*
X8905643Y-16891214D01*
X8991357Y-16891214D02*
X8991357Y-16591214D01*
X8962786Y-16634071D01*
X8934214Y-16662643D01*
X8905643Y-16676929D01*
X9205643Y-16862643D02*
X9219928Y-16876929D01*
X9205643Y-16891214D01*
X9191357Y-16876929D01*
X9205643Y-16862643D01*
X9205643Y-16891214D01*
X9505643Y-16891214D02*
X9334214Y-16891214D01*
X9419928Y-16891214D02*
X9419928Y-16591214D01*
X9391357Y-16634071D01*
X9362786Y-16662643D01*
X9334214Y-16676929D01*
X9691357Y-16591214D02*
X9719928Y-16591214D01*
X9748500Y-16605500D01*
X9762786Y-16619786D01*
X9777071Y-16648357D01*
X9791357Y-16705500D01*
X9791357Y-16776929D01*
X9777071Y-16834072D01*
X9762786Y-16862643D01*
X9748500Y-16876929D01*
X9719928Y-16891214D01*
X9691357Y-16891214D01*
X9662786Y-16876929D01*
X9648500Y-16862643D01*
X9634214Y-16834072D01*
X9619928Y-16776929D01*
X9619928Y-16705500D01*
X9634214Y-16648357D01*
X9648500Y-16619786D01*
X9662786Y-16605500D01*
X9691357Y-16591214D01*
X9919928Y-16891214D02*
X9919928Y-16691214D01*
X9919928Y-16719786D02*
X9934214Y-16705500D01*
X9962786Y-16691214D01*
X10005643Y-16691214D01*
X10034214Y-16705500D01*
X10048500Y-16734071D01*
X10048500Y-16891214D01*
X10048500Y-16734071D02*
X10062786Y-16705500D01*
X10091357Y-16691214D01*
X10134214Y-16691214D01*
X10162786Y-16705500D01*
X10177071Y-16734071D01*
X10177071Y-16891214D01*
X10319928Y-16891214D02*
X10319928Y-16691214D01*
X10319928Y-16719786D02*
X10334214Y-16705500D01*
X10362786Y-16691214D01*
X10405643Y-16691214D01*
X10434214Y-16705500D01*
X10448500Y-16734071D01*
X10448500Y-16891214D01*
X10448500Y-16734071D02*
X10462786Y-16705500D01*
X10491357Y-16691214D01*
X10534214Y-16691214D01*
X10562786Y-16705500D01*
X10577071Y-16734071D01*
X10577071Y-16891214D01*
X11162786Y-16576929D02*
X10905643Y-16962643D01*
X11548500Y-16591214D02*
X11577071Y-16591214D01*
X11605643Y-16605500D01*
X11619928Y-16619786D01*
X11634214Y-16648357D01*
X11648500Y-16705500D01*
X11648500Y-16776929D01*
X11634214Y-16834072D01*
X11619928Y-16862643D01*
X11605643Y-16876929D01*
X11577071Y-16891214D01*
X11548500Y-16891214D01*
X11519928Y-16876929D01*
X11505643Y-16862643D01*
X11491357Y-16834072D01*
X11477071Y-16776929D01*
X11477071Y-16705500D01*
X11491357Y-16648357D01*
X11505643Y-16619786D01*
X11519928Y-16605500D01*
X11548500Y-16591214D01*
X11777071Y-16862643D02*
X11791357Y-16876929D01*
X11777071Y-16891214D01*
X11762786Y-16876929D01*
X11777071Y-16862643D01*
X11777071Y-16891214D01*
X11977071Y-16591214D02*
X12005643Y-16591214D01*
X12034214Y-16605500D01*
X12048500Y-16619786D01*
X12062786Y-16648357D01*
X12077071Y-16705500D01*
X12077071Y-16776929D01*
X12062786Y-16834072D01*
X12048500Y-16862643D01*
X12034214Y-16876929D01*
X12005643Y-16891214D01*
X11977071Y-16891214D01*
X11948500Y-16876929D01*
X11934214Y-16862643D01*
X11919928Y-16834072D01*
X11905643Y-16776929D01*
X11905643Y-16705500D01*
X11919928Y-16648357D01*
X11934214Y-16619786D01*
X11948500Y-16605500D01*
X11977071Y-16591214D01*
X12334214Y-16691214D02*
X12334214Y-16891214D01*
X12262786Y-16576929D02*
X12191357Y-16791214D01*
X12377071Y-16791214D01*
X12462786Y-16591214D02*
X12648500Y-16591214D01*
X12548500Y-16705500D01*
X12591357Y-16705500D01*
X12619928Y-16719786D01*
X12634214Y-16734071D01*
X12648500Y-16762643D01*
X12648500Y-16834072D01*
X12634214Y-16862643D01*
X12619928Y-16876929D01*
X12591357Y-16891214D01*
X12505643Y-16891214D01*
X12477071Y-16876929D01*
X12462786Y-16862643D01*
X12762786Y-16591214D02*
X12762786Y-16648357D01*
X12877071Y-16591214D02*
X12877071Y-16648357D01*
X13319928Y-17005500D02*
X13305643Y-16991214D01*
X13277071Y-16948357D01*
X13262786Y-16919786D01*
X13248500Y-16876929D01*
X13234214Y-16805500D01*
X13234214Y-16748357D01*
X13248500Y-16676929D01*
X13262786Y-16634071D01*
X13277071Y-16605500D01*
X13305643Y-16562643D01*
X13319928Y-16548357D01*
X13419928Y-16619786D02*
X13434214Y-16605500D01*
X13462786Y-16591214D01*
X13534214Y-16591214D01*
X13562786Y-16605500D01*
X13577071Y-16619786D01*
X13591357Y-16648357D01*
X13591357Y-16676929D01*
X13577071Y-16719786D01*
X13405643Y-16891214D01*
X13591357Y-16891214D01*
X13948500Y-16891214D02*
X13948500Y-16591214D01*
X14077071Y-16891214D02*
X14077071Y-16734071D01*
X14062786Y-16705500D01*
X14034214Y-16691214D01*
X13991357Y-16691214D01*
X13962786Y-16705500D01*
X13948500Y-16719786D01*
X14262786Y-16891214D02*
X14234214Y-16876929D01*
X14219928Y-16862643D01*
X14205643Y-16834072D01*
X14205643Y-16748357D01*
X14219928Y-16719786D01*
X14234214Y-16705500D01*
X14262786Y-16691214D01*
X14305643Y-16691214D01*
X14334214Y-16705500D01*
X14348500Y-16719786D01*
X14362786Y-16748357D01*
X14362786Y-16834072D01*
X14348500Y-16862643D01*
X14334214Y-16876929D01*
X14305643Y-16891214D01*
X14262786Y-16891214D01*
X14534214Y-16891214D02*
X14505643Y-16876929D01*
X14491357Y-16848357D01*
X14491357Y-16591214D01*
X14762786Y-16876929D02*
X14734214Y-16891214D01*
X14677071Y-16891214D01*
X14648500Y-16876929D01*
X14634214Y-16848357D01*
X14634214Y-16734071D01*
X14648500Y-16705500D01*
X14677071Y-16691214D01*
X14734214Y-16691214D01*
X14762786Y-16705500D01*
X14777071Y-16734071D01*
X14777071Y-16762643D01*
X14634214Y-16791214D01*
X14891357Y-16876929D02*
X14919928Y-16891214D01*
X14977071Y-16891214D01*
X15005643Y-16876929D01*
X15019928Y-16848357D01*
X15019928Y-16834072D01*
X15005643Y-16805500D01*
X14977071Y-16791214D01*
X14934214Y-16791214D01*
X14905643Y-16776929D01*
X14891357Y-16748357D01*
X14891357Y-16734071D01*
X14905643Y-16705500D01*
X14934214Y-16691214D01*
X14977071Y-16691214D01*
X15005643Y-16705500D01*
X15119928Y-17005500D02*
X15134214Y-16991214D01*
X15162786Y-16948357D01*
X15177071Y-16919786D01*
X15191357Y-16876929D01*
X15205643Y-16805500D01*
X15205643Y-16748357D01*
X15191357Y-16676929D01*
X15177071Y-16634071D01*
X15162786Y-16605500D01*
X15134214Y-16562643D01*
X15119928Y-16548357D01*
X8533500Y-17251500D02*
X8633500Y-17151500D01*
X8533500Y-17051500D01*
X8433500Y-17151500D01*
X8533500Y-17251500D01*
X8905643Y-17015786D02*
X8919928Y-17001500D01*
X8948500Y-16987214D01*
X9019928Y-16987214D01*
X9048500Y-17001500D01*
X9062786Y-17015786D01*
X9077071Y-17044357D01*
X9077071Y-17072929D01*
X9062786Y-17115786D01*
X8891357Y-17287214D01*
X9077071Y-17287214D01*
X9205643Y-17258643D02*
X9219928Y-17272929D01*
X9205643Y-17287214D01*
X9191357Y-17272929D01*
X9205643Y-17258643D01*
X9205643Y-17287214D01*
X9405643Y-16987214D02*
X9434214Y-16987214D01*
X9462786Y-17001500D01*
X9477071Y-17015786D01*
X9491357Y-17044357D01*
X9505643Y-17101500D01*
X9505643Y-17172929D01*
X9491357Y-17230072D01*
X9477071Y-17258643D01*
X9462786Y-17272929D01*
X9434214Y-17287214D01*
X9405643Y-17287214D01*
X9377071Y-17272929D01*
X9362786Y-17258643D01*
X9348500Y-17230072D01*
X9334214Y-17172929D01*
X9334214Y-17101500D01*
X9348500Y-17044357D01*
X9362786Y-17015786D01*
X9377071Y-17001500D01*
X9405643Y-16987214D01*
X9691357Y-16987214D02*
X9719928Y-16987214D01*
X9748500Y-17001500D01*
X9762786Y-17015786D01*
X9777071Y-17044357D01*
X9791357Y-17101500D01*
X9791357Y-17172929D01*
X9777071Y-17230072D01*
X9762786Y-17258643D01*
X9748500Y-17272929D01*
X9719928Y-17287214D01*
X9691357Y-17287214D01*
X9662786Y-17272929D01*
X9648500Y-17258643D01*
X9634214Y-17230072D01*
X9619928Y-17172929D01*
X9619928Y-17101500D01*
X9634214Y-17044357D01*
X9648500Y-17015786D01*
X9662786Y-17001500D01*
X9691357Y-16987214D01*
X9919928Y-17287214D02*
X9919928Y-17087214D01*
X9919928Y-17115786D02*
X9934214Y-17101500D01*
X9962786Y-17087214D01*
X10005643Y-17087214D01*
X10034214Y-17101500D01*
X10048500Y-17130072D01*
X10048500Y-17287214D01*
X10048500Y-17130072D02*
X10062786Y-17101500D01*
X10091357Y-17087214D01*
X10134214Y-17087214D01*
X10162786Y-17101500D01*
X10177071Y-17130072D01*
X10177071Y-17287214D01*
X10319928Y-17287214D02*
X10319928Y-17087214D01*
X10319928Y-17115786D02*
X10334214Y-17101500D01*
X10362786Y-17087214D01*
X10405643Y-17087214D01*
X10434214Y-17101500D01*
X10448500Y-17130072D01*
X10448500Y-17287214D01*
X10448500Y-17130072D02*
X10462786Y-17101500D01*
X10491357Y-17087214D01*
X10534214Y-17087214D01*
X10562786Y-17101500D01*
X10577071Y-17130072D01*
X10577071Y-17287214D01*
X11162786Y-16972929D02*
X10905643Y-17358643D01*
X11548500Y-16987214D02*
X11577071Y-16987214D01*
X11605643Y-17001500D01*
X11619928Y-17015786D01*
X11634214Y-17044357D01*
X11648500Y-17101500D01*
X11648500Y-17172929D01*
X11634214Y-17230072D01*
X11619928Y-17258643D01*
X11605643Y-17272929D01*
X11577071Y-17287214D01*
X11548500Y-17287214D01*
X11519928Y-17272929D01*
X11505643Y-17258643D01*
X11491357Y-17230072D01*
X11477071Y-17172929D01*
X11477071Y-17101500D01*
X11491357Y-17044357D01*
X11505643Y-17015786D01*
X11519928Y-17001500D01*
X11548500Y-16987214D01*
X11777071Y-17258643D02*
X11791357Y-17272929D01*
X11777071Y-17287214D01*
X11762786Y-17272929D01*
X11777071Y-17258643D01*
X11777071Y-17287214D01*
X11977071Y-16987214D02*
X12005643Y-16987214D01*
X12034214Y-17001500D01*
X12048500Y-17015786D01*
X12062786Y-17044357D01*
X12077071Y-17101500D01*
X12077071Y-17172929D01*
X12062786Y-17230072D01*
X12048500Y-17258643D01*
X12034214Y-17272929D01*
X12005643Y-17287214D01*
X11977071Y-17287214D01*
X11948500Y-17272929D01*
X11934214Y-17258643D01*
X11919928Y-17230072D01*
X11905643Y-17172929D01*
X11905643Y-17101500D01*
X11919928Y-17044357D01*
X11934214Y-17015786D01*
X11948500Y-17001500D01*
X11977071Y-16987214D01*
X12177071Y-16987214D02*
X12377071Y-16987214D01*
X12248500Y-17287214D01*
X12505643Y-17287214D02*
X12562786Y-17287214D01*
X12591357Y-17272929D01*
X12605643Y-17258643D01*
X12634214Y-17215786D01*
X12648500Y-17158643D01*
X12648500Y-17044357D01*
X12634214Y-17015786D01*
X12619928Y-17001500D01*
X12591357Y-16987214D01*
X12534214Y-16987214D01*
X12505643Y-17001500D01*
X12491357Y-17015786D01*
X12477071Y-17044357D01*
X12477071Y-17115786D01*
X12491357Y-17144357D01*
X12505643Y-17158643D01*
X12534214Y-17172929D01*
X12591357Y-17172929D01*
X12619928Y-17158643D01*
X12634214Y-17144357D01*
X12648500Y-17115786D01*
X12762786Y-16987214D02*
X12762786Y-17044357D01*
X12877071Y-16987214D02*
X12877071Y-17044357D01*
X13319928Y-17401500D02*
X13305643Y-17387214D01*
X13277071Y-17344357D01*
X13262786Y-17315786D01*
X13248500Y-17272929D01*
X13234214Y-17201500D01*
X13234214Y-17144357D01*
X13248500Y-17072929D01*
X13262786Y-17030072D01*
X13277071Y-17001500D01*
X13305643Y-16958643D01*
X13319928Y-16944357D01*
X13562786Y-17087214D02*
X13562786Y-17287214D01*
X13491357Y-16972929D02*
X13419928Y-17187214D01*
X13605643Y-17187214D01*
X13948500Y-17287214D02*
X13948500Y-16987214D01*
X14077071Y-17287214D02*
X14077071Y-17130072D01*
X14062786Y-17101500D01*
X14034214Y-17087214D01*
X13991357Y-17087214D01*
X13962786Y-17101500D01*
X13948500Y-17115786D01*
X14262786Y-17287214D02*
X14234214Y-17272929D01*
X14219928Y-17258643D01*
X14205643Y-17230072D01*
X14205643Y-17144357D01*
X14219928Y-17115786D01*
X14234214Y-17101500D01*
X14262786Y-17087214D01*
X14305643Y-17087214D01*
X14334214Y-17101500D01*
X14348500Y-17115786D01*
X14362786Y-17144357D01*
X14362786Y-17230072D01*
X14348500Y-17258643D01*
X14334214Y-17272929D01*
X14305643Y-17287214D01*
X14262786Y-17287214D01*
X14534214Y-17287214D02*
X14505643Y-17272929D01*
X14491357Y-17244357D01*
X14491357Y-16987214D01*
X14762786Y-17272929D02*
X14734214Y-17287214D01*
X14677071Y-17287214D01*
X14648500Y-17272929D01*
X14634214Y-17244357D01*
X14634214Y-17130072D01*
X14648500Y-17101500D01*
X14677071Y-17087214D01*
X14734214Y-17087214D01*
X14762786Y-17101500D01*
X14777071Y-17130072D01*
X14777071Y-17158643D01*
X14634214Y-17187214D01*
X14891357Y-17272929D02*
X14919928Y-17287214D01*
X14977071Y-17287214D01*
X15005643Y-17272929D01*
X15019928Y-17244357D01*
X15019928Y-17230072D01*
X15005643Y-17201500D01*
X14977071Y-17187214D01*
X14934214Y-17187214D01*
X14905643Y-17172929D01*
X14891357Y-17144357D01*
X14891357Y-17130072D01*
X14905643Y-17101500D01*
X14934214Y-17087214D01*
X14977071Y-17087214D01*
X15005643Y-17101500D01*
X15119928Y-17401500D02*
X15134214Y-17387214D01*
X15162786Y-17344357D01*
X15177071Y-17315786D01*
X15191357Y-17272929D01*
X15205643Y-17201500D01*
X15205643Y-17144357D01*
X15191357Y-17072929D01*
X15177071Y-17030072D01*
X15162786Y-17001500D01*
X15134214Y-16958643D01*
X15119928Y-16944357D01*
X8543500Y-17502500D02*
X8633500Y-17592500D01*
X8633500Y-17502500D02*
X8543500Y-17592500D01*
X8633500Y-17547500D02*
G75*
G03X8633500Y-17547500I-45000J0D01*
G01*
X8977071Y-17383214D02*
X9005643Y-17383214D01*
X9034214Y-17397500D01*
X9048500Y-17411786D01*
X9062786Y-17440357D01*
X9077071Y-17497500D01*
X9077071Y-17568929D01*
X9062786Y-17626072D01*
X9048500Y-17654643D01*
X9034214Y-17668929D01*
X9005643Y-17683214D01*
X8977071Y-17683214D01*
X8948500Y-17668929D01*
X8934214Y-17654643D01*
X8919928Y-17626072D01*
X8905643Y-17568929D01*
X8905643Y-17497500D01*
X8919928Y-17440357D01*
X8934214Y-17411786D01*
X8948500Y-17397500D01*
X8977071Y-17383214D01*
X9205643Y-17654643D02*
X9219928Y-17668929D01*
X9205643Y-17683214D01*
X9191357Y-17668929D01*
X9205643Y-17654643D01*
X9205643Y-17683214D01*
X9362786Y-17683214D02*
X9419928Y-17683214D01*
X9448500Y-17668929D01*
X9462786Y-17654643D01*
X9491357Y-17611786D01*
X9505643Y-17554643D01*
X9505643Y-17440357D01*
X9491357Y-17411786D01*
X9477071Y-17397500D01*
X9448500Y-17383214D01*
X9391357Y-17383214D01*
X9362786Y-17397500D01*
X9348500Y-17411786D01*
X9334214Y-17440357D01*
X9334214Y-17511786D01*
X9348500Y-17540357D01*
X9362786Y-17554643D01*
X9391357Y-17568929D01*
X9448500Y-17568929D01*
X9477071Y-17554643D01*
X9491357Y-17540357D01*
X9505643Y-17511786D01*
X9691357Y-17383214D02*
X9719928Y-17383214D01*
X9748500Y-17397500D01*
X9762786Y-17411786D01*
X9777071Y-17440357D01*
X9791357Y-17497500D01*
X9791357Y-17568929D01*
X9777071Y-17626072D01*
X9762786Y-17654643D01*
X9748500Y-17668929D01*
X9719928Y-17683214D01*
X9691357Y-17683214D01*
X9662786Y-17668929D01*
X9648500Y-17654643D01*
X9634214Y-17626072D01*
X9619928Y-17568929D01*
X9619928Y-17497500D01*
X9634214Y-17440357D01*
X9648500Y-17411786D01*
X9662786Y-17397500D01*
X9691357Y-17383214D01*
X9919928Y-17683214D02*
X9919928Y-17483214D01*
X9919928Y-17511786D02*
X9934214Y-17497500D01*
X9962786Y-17483214D01*
X10005643Y-17483214D01*
X10034214Y-17497500D01*
X10048500Y-17526072D01*
X10048500Y-17683214D01*
X10048500Y-17526072D02*
X10062786Y-17497500D01*
X10091357Y-17483214D01*
X10134214Y-17483214D01*
X10162786Y-17497500D01*
X10177071Y-17526072D01*
X10177071Y-17683214D01*
X10319928Y-17683214D02*
X10319928Y-17483214D01*
X10319928Y-17511786D02*
X10334214Y-17497500D01*
X10362786Y-17483214D01*
X10405643Y-17483214D01*
X10434214Y-17497500D01*
X10448500Y-17526072D01*
X10448500Y-17683214D01*
X10448500Y-17526072D02*
X10462786Y-17497500D01*
X10491357Y-17483214D01*
X10534214Y-17483214D01*
X10562786Y-17497500D01*
X10577071Y-17526072D01*
X10577071Y-17683214D01*
X11162786Y-17368929D02*
X10905643Y-17754643D01*
X11548500Y-17383214D02*
X11577071Y-17383214D01*
X11605643Y-17397500D01*
X11619928Y-17411786D01*
X11634214Y-17440357D01*
X11648500Y-17497500D01*
X11648500Y-17568929D01*
X11634214Y-17626072D01*
X11619928Y-17654643D01*
X11605643Y-17668929D01*
X11577071Y-17683214D01*
X11548500Y-17683214D01*
X11519928Y-17668929D01*
X11505643Y-17654643D01*
X11491357Y-17626072D01*
X11477071Y-17568929D01*
X11477071Y-17497500D01*
X11491357Y-17440357D01*
X11505643Y-17411786D01*
X11519928Y-17397500D01*
X11548500Y-17383214D01*
X11777071Y-17654643D02*
X11791357Y-17668929D01*
X11777071Y-17683214D01*
X11762786Y-17668929D01*
X11777071Y-17654643D01*
X11777071Y-17683214D01*
X11977071Y-17383214D02*
X12005643Y-17383214D01*
X12034214Y-17397500D01*
X12048500Y-17411786D01*
X12062786Y-17440357D01*
X12077071Y-17497500D01*
X12077071Y-17568929D01*
X12062786Y-17626072D01*
X12048500Y-17654643D01*
X12034214Y-17668929D01*
X12005643Y-17683214D01*
X11977071Y-17683214D01*
X11948500Y-17668929D01*
X11934214Y-17654643D01*
X11919928Y-17626072D01*
X11905643Y-17568929D01*
X11905643Y-17497500D01*
X11919928Y-17440357D01*
X11934214Y-17411786D01*
X11948500Y-17397500D01*
X11977071Y-17383214D01*
X12177071Y-17383214D02*
X12362786Y-17383214D01*
X12262786Y-17497500D01*
X12305643Y-17497500D01*
X12334214Y-17511786D01*
X12348500Y-17526072D01*
X12362786Y-17554643D01*
X12362786Y-17626072D01*
X12348500Y-17654643D01*
X12334214Y-17668929D01*
X12305643Y-17683214D01*
X12219928Y-17683214D01*
X12191357Y-17668929D01*
X12177071Y-17654643D01*
X12634214Y-17383214D02*
X12491357Y-17383214D01*
X12477071Y-17526072D01*
X12491357Y-17511786D01*
X12519928Y-17497500D01*
X12591357Y-17497500D01*
X12619928Y-17511786D01*
X12634214Y-17526072D01*
X12648500Y-17554643D01*
X12648500Y-17626072D01*
X12634214Y-17654643D01*
X12619928Y-17668929D01*
X12591357Y-17683214D01*
X12519928Y-17683214D01*
X12491357Y-17668929D01*
X12477071Y-17654643D01*
X12762786Y-17383214D02*
X12762786Y-17440357D01*
X12877071Y-17383214D02*
X12877071Y-17440357D01*
X13319928Y-17797500D02*
X13305643Y-17783214D01*
X13277071Y-17740357D01*
X13262786Y-17711786D01*
X13248500Y-17668929D01*
X13234214Y-17597500D01*
X13234214Y-17540357D01*
X13248500Y-17468929D01*
X13262786Y-17426072D01*
X13277071Y-17397500D01*
X13305643Y-17354643D01*
X13319928Y-17340357D01*
X13419928Y-17411786D02*
X13434214Y-17397500D01*
X13462786Y-17383214D01*
X13534214Y-17383214D01*
X13562786Y-17397500D01*
X13577071Y-17411786D01*
X13591357Y-17440357D01*
X13591357Y-17468929D01*
X13577071Y-17511786D01*
X13405643Y-17683214D01*
X13591357Y-17683214D01*
X13948500Y-17683214D02*
X13948500Y-17383214D01*
X14077071Y-17683214D02*
X14077071Y-17526072D01*
X14062786Y-17497500D01*
X14034214Y-17483214D01*
X13991357Y-17483214D01*
X13962786Y-17497500D01*
X13948500Y-17511786D01*
X14262786Y-17683214D02*
X14234214Y-17668929D01*
X14219928Y-17654643D01*
X14205643Y-17626072D01*
X14205643Y-17540357D01*
X14219928Y-17511786D01*
X14234214Y-17497500D01*
X14262786Y-17483214D01*
X14305643Y-17483214D01*
X14334214Y-17497500D01*
X14348500Y-17511786D01*
X14362786Y-17540357D01*
X14362786Y-17626072D01*
X14348500Y-17654643D01*
X14334214Y-17668929D01*
X14305643Y-17683214D01*
X14262786Y-17683214D01*
X14534214Y-17683214D02*
X14505643Y-17668929D01*
X14491357Y-17640357D01*
X14491357Y-17383214D01*
X14762786Y-17668929D02*
X14734214Y-17683214D01*
X14677071Y-17683214D01*
X14648500Y-17668929D01*
X14634214Y-17640357D01*
X14634214Y-17526072D01*
X14648500Y-17497500D01*
X14677071Y-17483214D01*
X14734214Y-17483214D01*
X14762786Y-17497500D01*
X14777071Y-17526072D01*
X14777071Y-17554643D01*
X14634214Y-17583214D01*
X14891357Y-17668929D02*
X14919928Y-17683214D01*
X14977071Y-17683214D01*
X15005643Y-17668929D01*
X15019928Y-17640357D01*
X15019928Y-17626072D01*
X15005643Y-17597500D01*
X14977071Y-17583214D01*
X14934214Y-17583214D01*
X14905643Y-17568929D01*
X14891357Y-17540357D01*
X14891357Y-17526072D01*
X14905643Y-17497500D01*
X14934214Y-17483214D01*
X14977071Y-17483214D01*
X15005643Y-17497500D01*
X15119928Y-17797500D02*
X15134214Y-17783214D01*
X15162786Y-17740357D01*
X15177071Y-17711786D01*
X15191357Y-17668929D01*
X15205643Y-17597500D01*
X15205643Y-17540357D01*
X15191357Y-17468929D01*
X15177071Y-17426072D01*
X15162786Y-17397500D01*
X15134214Y-17354643D01*
X15119928Y-17340357D01*
X15662786Y-17797500D02*
X15648500Y-17783214D01*
X15619928Y-17740357D01*
X15605643Y-17711786D01*
X15591357Y-17668929D01*
X15577071Y-17597500D01*
X15577071Y-17540357D01*
X15591357Y-17468929D01*
X15605643Y-17426072D01*
X15619928Y-17397500D01*
X15648500Y-17354643D01*
X15662786Y-17340357D01*
X15777071Y-17483214D02*
X15777071Y-17683214D01*
X15777071Y-17511786D02*
X15791357Y-17497500D01*
X15819928Y-17483214D01*
X15862786Y-17483214D01*
X15891357Y-17497500D01*
X15905643Y-17526072D01*
X15905643Y-17683214D01*
X16091357Y-17683214D02*
X16062786Y-17668929D01*
X16048500Y-17654643D01*
X16034214Y-17626072D01*
X16034214Y-17540357D01*
X16048500Y-17511786D01*
X16062786Y-17497500D01*
X16091357Y-17483214D01*
X16134214Y-17483214D01*
X16162786Y-17497500D01*
X16177071Y-17511786D01*
X16191357Y-17540357D01*
X16191357Y-17626072D01*
X16177071Y-17654643D01*
X16162786Y-17668929D01*
X16134214Y-17683214D01*
X16091357Y-17683214D01*
X16277071Y-17483214D02*
X16391357Y-17483214D01*
X16319928Y-17383214D02*
X16319928Y-17640357D01*
X16334214Y-17668929D01*
X16362786Y-17683214D01*
X16391357Y-17683214D01*
X16719928Y-17483214D02*
X16719928Y-17783214D01*
X16719928Y-17497500D02*
X16748500Y-17483214D01*
X16805643Y-17483214D01*
X16834214Y-17497500D01*
X16848500Y-17511786D01*
X16862786Y-17540357D01*
X16862786Y-17626072D01*
X16848500Y-17654643D01*
X16834214Y-17668929D01*
X16805643Y-17683214D01*
X16748500Y-17683214D01*
X16719928Y-17668929D01*
X17034214Y-17683214D02*
X17005643Y-17668929D01*
X16991357Y-17640357D01*
X16991357Y-17383214D01*
X17277071Y-17683214D02*
X17277071Y-17526072D01*
X17262786Y-17497500D01*
X17234214Y-17483214D01*
X17177071Y-17483214D01*
X17148500Y-17497500D01*
X17277071Y-17668929D02*
X17248500Y-17683214D01*
X17177071Y-17683214D01*
X17148500Y-17668929D01*
X17134214Y-17640357D01*
X17134214Y-17611786D01*
X17148500Y-17583214D01*
X17177071Y-17568929D01*
X17248500Y-17568929D01*
X17277071Y-17554643D01*
X17377071Y-17483214D02*
X17491357Y-17483214D01*
X17419928Y-17383214D02*
X17419928Y-17640357D01*
X17434214Y-17668929D01*
X17462786Y-17683214D01*
X17491357Y-17683214D01*
X17705643Y-17668929D02*
X17677071Y-17683214D01*
X17619928Y-17683214D01*
X17591357Y-17668929D01*
X17577071Y-17640357D01*
X17577071Y-17526072D01*
X17591357Y-17497500D01*
X17619928Y-17483214D01*
X17677071Y-17483214D01*
X17705643Y-17497500D01*
X17719928Y-17526072D01*
X17719928Y-17554643D01*
X17577071Y-17583214D01*
X17977071Y-17683214D02*
X17977071Y-17383214D01*
X17977071Y-17668929D02*
X17948500Y-17683214D01*
X17891357Y-17683214D01*
X17862786Y-17668929D01*
X17848500Y-17654643D01*
X17834214Y-17626072D01*
X17834214Y-17540357D01*
X17848500Y-17511786D01*
X17862786Y-17497500D01*
X17891357Y-17483214D01*
X17948500Y-17483214D01*
X17977071Y-17497500D01*
X18091357Y-17797500D02*
X18105643Y-17783214D01*
X18134214Y-17740357D01*
X18148500Y-17711786D01*
X18162786Y-17668929D01*
X18177071Y-17597500D01*
X18177071Y-17540357D01*
X18162786Y-17468929D01*
X18148500Y-17426072D01*
X18134214Y-17397500D01*
X18105643Y-17354643D01*
X18091357Y-17340357D01*
X8523500Y-17888500D02*
X8633500Y-17998500D01*
X8633500Y-17888500D02*
X8523500Y-17998500D01*
X8578500Y-17888500D02*
X8578500Y-17998500D01*
X8523500Y-17943500D02*
X8633500Y-17943500D01*
X9077071Y-18079214D02*
X8905643Y-18079214D01*
X8991357Y-18079214D02*
X8991357Y-17779214D01*
X8962786Y-17822072D01*
X8934214Y-17850643D01*
X8905643Y-17864929D01*
X9205643Y-18050643D02*
X9219928Y-18064929D01*
X9205643Y-18079214D01*
X9191357Y-18064929D01*
X9205643Y-18050643D01*
X9205643Y-18079214D01*
X9505643Y-18079214D02*
X9334214Y-18079214D01*
X9419928Y-18079214D02*
X9419928Y-17779214D01*
X9391357Y-17822072D01*
X9362786Y-17850643D01*
X9334214Y-17864929D01*
X9691357Y-17779214D02*
X9719928Y-17779214D01*
X9748500Y-17793500D01*
X9762786Y-17807786D01*
X9777071Y-17836357D01*
X9791357Y-17893500D01*
X9791357Y-17964929D01*
X9777071Y-18022072D01*
X9762786Y-18050643D01*
X9748500Y-18064929D01*
X9719928Y-18079214D01*
X9691357Y-18079214D01*
X9662786Y-18064929D01*
X9648500Y-18050643D01*
X9634214Y-18022072D01*
X9619928Y-17964929D01*
X9619928Y-17893500D01*
X9634214Y-17836357D01*
X9648500Y-17807786D01*
X9662786Y-17793500D01*
X9691357Y-17779214D01*
X9919928Y-18079214D02*
X9919928Y-17879214D01*
X9919928Y-17907786D02*
X9934214Y-17893500D01*
X9962786Y-17879214D01*
X10005643Y-17879214D01*
X10034214Y-17893500D01*
X10048500Y-17922072D01*
X10048500Y-18079214D01*
X10048500Y-17922072D02*
X10062786Y-17893500D01*
X10091357Y-17879214D01*
X10134214Y-17879214D01*
X10162786Y-17893500D01*
X10177071Y-17922072D01*
X10177071Y-18079214D01*
X10319928Y-18079214D02*
X10319928Y-17879214D01*
X10319928Y-17907786D02*
X10334214Y-17893500D01*
X10362786Y-17879214D01*
X10405643Y-17879214D01*
X10434214Y-17893500D01*
X10448500Y-17922072D01*
X10448500Y-18079214D01*
X10448500Y-17922072D02*
X10462786Y-17893500D01*
X10491357Y-17879214D01*
X10534214Y-17879214D01*
X10562786Y-17893500D01*
X10577071Y-17922072D01*
X10577071Y-18079214D01*
X11162786Y-17764929D02*
X10905643Y-18150643D01*
X11548500Y-17779214D02*
X11577071Y-17779214D01*
X11605643Y-17793500D01*
X11619928Y-17807786D01*
X11634214Y-17836357D01*
X11648500Y-17893500D01*
X11648500Y-17964929D01*
X11634214Y-18022072D01*
X11619928Y-18050643D01*
X11605643Y-18064929D01*
X11577071Y-18079214D01*
X11548500Y-18079214D01*
X11519928Y-18064929D01*
X11505643Y-18050643D01*
X11491357Y-18022072D01*
X11477071Y-17964929D01*
X11477071Y-17893500D01*
X11491357Y-17836357D01*
X11505643Y-17807786D01*
X11519928Y-17793500D01*
X11548500Y-17779214D01*
X11777071Y-18050643D02*
X11791357Y-18064929D01*
X11777071Y-18079214D01*
X11762786Y-18064929D01*
X11777071Y-18050643D01*
X11777071Y-18079214D01*
X11977071Y-17779214D02*
X12005643Y-17779214D01*
X12034214Y-17793500D01*
X12048500Y-17807786D01*
X12062786Y-17836357D01*
X12077071Y-17893500D01*
X12077071Y-17964929D01*
X12062786Y-18022072D01*
X12048500Y-18050643D01*
X12034214Y-18064929D01*
X12005643Y-18079214D01*
X11977071Y-18079214D01*
X11948500Y-18064929D01*
X11934214Y-18050643D01*
X11919928Y-18022072D01*
X11905643Y-17964929D01*
X11905643Y-17893500D01*
X11919928Y-17836357D01*
X11934214Y-17807786D01*
X11948500Y-17793500D01*
X11977071Y-17779214D01*
X12334214Y-17879214D02*
X12334214Y-18079214D01*
X12262786Y-17764929D02*
X12191357Y-17979214D01*
X12377071Y-17979214D01*
X12462786Y-17779214D02*
X12648500Y-17779214D01*
X12548500Y-17893500D01*
X12591357Y-17893500D01*
X12619928Y-17907786D01*
X12634214Y-17922072D01*
X12648500Y-17950643D01*
X12648500Y-18022072D01*
X12634214Y-18050643D01*
X12619928Y-18064929D01*
X12591357Y-18079214D01*
X12505643Y-18079214D01*
X12477071Y-18064929D01*
X12462786Y-18050643D01*
X12762786Y-17779214D02*
X12762786Y-17836357D01*
X12877071Y-17779214D02*
X12877071Y-17836357D01*
X13319928Y-18193500D02*
X13305643Y-18179214D01*
X13277071Y-18136357D01*
X13262786Y-18107786D01*
X13248500Y-18064929D01*
X13234214Y-17993500D01*
X13234214Y-17936357D01*
X13248500Y-17864929D01*
X13262786Y-17822072D01*
X13277071Y-17793500D01*
X13305643Y-17750643D01*
X13319928Y-17736357D01*
X13419928Y-17807786D02*
X13434214Y-17793500D01*
X13462786Y-17779214D01*
X13534214Y-17779214D01*
X13562786Y-17793500D01*
X13577071Y-17807786D01*
X13591357Y-17836357D01*
X13591357Y-17864929D01*
X13577071Y-17907786D01*
X13405643Y-18079214D01*
X13591357Y-18079214D01*
X13948500Y-18079214D02*
X13948500Y-17779214D01*
X14077071Y-18079214D02*
X14077071Y-17922072D01*
X14062786Y-17893500D01*
X14034214Y-17879214D01*
X13991357Y-17879214D01*
X13962786Y-17893500D01*
X13948500Y-17907786D01*
X14262786Y-18079214D02*
X14234214Y-18064929D01*
X14219928Y-18050643D01*
X14205643Y-18022072D01*
X14205643Y-17936357D01*
X14219928Y-17907786D01*
X14234214Y-17893500D01*
X14262786Y-17879214D01*
X14305643Y-17879214D01*
X14334214Y-17893500D01*
X14348500Y-17907786D01*
X14362786Y-17936357D01*
X14362786Y-18022072D01*
X14348500Y-18050643D01*
X14334214Y-18064929D01*
X14305643Y-18079214D01*
X14262786Y-18079214D01*
X14534214Y-18079214D02*
X14505643Y-18064929D01*
X14491357Y-18036357D01*
X14491357Y-17779214D01*
X14762786Y-18064929D02*
X14734214Y-18079214D01*
X14677071Y-18079214D01*
X14648500Y-18064929D01*
X14634214Y-18036357D01*
X14634214Y-17922072D01*
X14648500Y-17893500D01*
X14677071Y-17879214D01*
X14734214Y-17879214D01*
X14762786Y-17893500D01*
X14777071Y-17922072D01*
X14777071Y-17950643D01*
X14634214Y-17979214D01*
X14891357Y-18064929D02*
X14919928Y-18079214D01*
X14977071Y-18079214D01*
X15005643Y-18064929D01*
X15019928Y-18036357D01*
X15019928Y-18022072D01*
X15005643Y-17993500D01*
X14977071Y-17979214D01*
X14934214Y-17979214D01*
X14905643Y-17964929D01*
X14891357Y-17936357D01*
X14891357Y-17922072D01*
X14905643Y-17893500D01*
X14934214Y-17879214D01*
X14977071Y-17879214D01*
X15005643Y-17893500D01*
X15119928Y-18193500D02*
X15134214Y-18179214D01*
X15162786Y-18136357D01*
X15177071Y-18107786D01*
X15191357Y-18064929D01*
X15205643Y-17993500D01*
X15205643Y-17936357D01*
X15191357Y-17864929D01*
X15177071Y-17822072D01*
X15162786Y-17793500D01*
X15134214Y-17750643D01*
X15119928Y-17736357D01*
X15662786Y-18193500D02*
X15648500Y-18179214D01*
X15619928Y-18136357D01*
X15605643Y-18107786D01*
X15591357Y-18064929D01*
X15577071Y-17993500D01*
X15577071Y-17936357D01*
X15591357Y-17864929D01*
X15605643Y-17822072D01*
X15619928Y-17793500D01*
X15648500Y-17750643D01*
X15662786Y-17736357D01*
X15777071Y-17879214D02*
X15777071Y-18079214D01*
X15777071Y-17907786D02*
X15791357Y-17893500D01*
X15819928Y-17879214D01*
X15862786Y-17879214D01*
X15891357Y-17893500D01*
X15905643Y-17922072D01*
X15905643Y-18079214D01*
X16091357Y-18079214D02*
X16062786Y-18064929D01*
X16048500Y-18050643D01*
X16034214Y-18022072D01*
X16034214Y-17936357D01*
X16048500Y-17907786D01*
X16062786Y-17893500D01*
X16091357Y-17879214D01*
X16134214Y-17879214D01*
X16162786Y-17893500D01*
X16177071Y-17907786D01*
X16191357Y-17936357D01*
X16191357Y-18022072D01*
X16177071Y-18050643D01*
X16162786Y-18064929D01*
X16134214Y-18079214D01*
X16091357Y-18079214D01*
X16277071Y-17879214D02*
X16391357Y-17879214D01*
X16319928Y-17779214D02*
X16319928Y-18036357D01*
X16334214Y-18064929D01*
X16362786Y-18079214D01*
X16391357Y-18079214D01*
X16719928Y-17879214D02*
X16719928Y-18179214D01*
X16719928Y-17893500D02*
X16748500Y-17879214D01*
X16805643Y-17879214D01*
X16834214Y-17893500D01*
X16848500Y-17907786D01*
X16862786Y-17936357D01*
X16862786Y-18022072D01*
X16848500Y-18050643D01*
X16834214Y-18064929D01*
X16805643Y-18079214D01*
X16748500Y-18079214D01*
X16719928Y-18064929D01*
X17034214Y-18079214D02*
X17005643Y-18064929D01*
X16991357Y-18036357D01*
X16991357Y-17779214D01*
X17277071Y-18079214D02*
X17277071Y-17922072D01*
X17262786Y-17893500D01*
X17234214Y-17879214D01*
X17177071Y-17879214D01*
X17148500Y-17893500D01*
X17277071Y-18064929D02*
X17248500Y-18079214D01*
X17177071Y-18079214D01*
X17148500Y-18064929D01*
X17134214Y-18036357D01*
X17134214Y-18007786D01*
X17148500Y-17979214D01*
X17177071Y-17964929D01*
X17248500Y-17964929D01*
X17277071Y-17950643D01*
X17377071Y-17879214D02*
X17491357Y-17879214D01*
X17419928Y-17779214D02*
X17419928Y-18036357D01*
X17434214Y-18064929D01*
X17462786Y-18079214D01*
X17491357Y-18079214D01*
X17705643Y-18064929D02*
X17677071Y-18079214D01*
X17619928Y-18079214D01*
X17591357Y-18064929D01*
X17577071Y-18036357D01*
X17577071Y-17922072D01*
X17591357Y-17893500D01*
X17619928Y-17879214D01*
X17677071Y-17879214D01*
X17705643Y-17893500D01*
X17719928Y-17922072D01*
X17719928Y-17950643D01*
X17577071Y-17979214D01*
X17977071Y-18079214D02*
X17977071Y-17779214D01*
X17977071Y-18064929D02*
X17948500Y-18079214D01*
X17891357Y-18079214D01*
X17862786Y-18064929D01*
X17848500Y-18050643D01*
X17834214Y-18022072D01*
X17834214Y-17936357D01*
X17848500Y-17907786D01*
X17862786Y-17893500D01*
X17891357Y-17879214D01*
X17948500Y-17879214D01*
X17977071Y-17893500D01*
X18091357Y-18193500D02*
X18105643Y-18179214D01*
X18134214Y-18136357D01*
X18148500Y-18107786D01*
X18162786Y-18064929D01*
X18177071Y-17993500D01*
X18177071Y-17936357D01*
X18162786Y-17864929D01*
X18148500Y-17822072D01*
X18134214Y-17793500D01*
X18105643Y-17750643D01*
X18091357Y-17736357D01*
X8313500Y-18179500D02*
X8633500Y-18499500D01*
X8633500Y-18179500D02*
X8313500Y-18499500D01*
X8586638Y-18452638D02*
X8586638Y-18226362D01*
X8360362Y-18226362D01*
X8360362Y-18452638D01*
X8586638Y-18452638D01*
X8891357Y-18175214D02*
X9077071Y-18175214D01*
X8977071Y-18289500D01*
X9019928Y-18289500D01*
X9048500Y-18303786D01*
X9062786Y-18318072D01*
X9077071Y-18346643D01*
X9077071Y-18418072D01*
X9062786Y-18446643D01*
X9048500Y-18460929D01*
X9019928Y-18475214D01*
X8934214Y-18475214D01*
X8905643Y-18460929D01*
X8891357Y-18446643D01*
X9205643Y-18446643D02*
X9219928Y-18460929D01*
X9205643Y-18475214D01*
X9191357Y-18460929D01*
X9205643Y-18446643D01*
X9205643Y-18475214D01*
X9334214Y-18203786D02*
X9348500Y-18189500D01*
X9377071Y-18175214D01*
X9448500Y-18175214D01*
X9477071Y-18189500D01*
X9491357Y-18203786D01*
X9505643Y-18232357D01*
X9505643Y-18260929D01*
X9491357Y-18303786D01*
X9319928Y-18475214D01*
X9505643Y-18475214D01*
X9691357Y-18175214D02*
X9719928Y-18175214D01*
X9748500Y-18189500D01*
X9762786Y-18203786D01*
X9777071Y-18232357D01*
X9791357Y-18289500D01*
X9791357Y-18360929D01*
X9777071Y-18418072D01*
X9762786Y-18446643D01*
X9748500Y-18460929D01*
X9719928Y-18475214D01*
X9691357Y-18475214D01*
X9662786Y-18460929D01*
X9648500Y-18446643D01*
X9634214Y-18418072D01*
X9619928Y-18360929D01*
X9619928Y-18289500D01*
X9634214Y-18232357D01*
X9648500Y-18203786D01*
X9662786Y-18189500D01*
X9691357Y-18175214D01*
X9919928Y-18475214D02*
X9919928Y-18275214D01*
X9919928Y-18303786D02*
X9934214Y-18289500D01*
X9962786Y-18275214D01*
X10005643Y-18275214D01*
X10034214Y-18289500D01*
X10048500Y-18318072D01*
X10048500Y-18475214D01*
X10048500Y-18318072D02*
X10062786Y-18289500D01*
X10091357Y-18275214D01*
X10134214Y-18275214D01*
X10162786Y-18289500D01*
X10177071Y-18318072D01*
X10177071Y-18475214D01*
X10319928Y-18475214D02*
X10319928Y-18275214D01*
X10319928Y-18303786D02*
X10334214Y-18289500D01*
X10362786Y-18275214D01*
X10405643Y-18275214D01*
X10434214Y-18289500D01*
X10448500Y-18318072D01*
X10448500Y-18475214D01*
X10448500Y-18318072D02*
X10462786Y-18289500D01*
X10491357Y-18275214D01*
X10534214Y-18275214D01*
X10562786Y-18289500D01*
X10577071Y-18318072D01*
X10577071Y-18475214D01*
X11162786Y-18160929D02*
X10905643Y-18546643D01*
X11548500Y-18175214D02*
X11577071Y-18175214D01*
X11605643Y-18189500D01*
X11619928Y-18203786D01*
X11634214Y-18232357D01*
X11648500Y-18289500D01*
X11648500Y-18360929D01*
X11634214Y-18418072D01*
X11619928Y-18446643D01*
X11605643Y-18460929D01*
X11577071Y-18475214D01*
X11548500Y-18475214D01*
X11519928Y-18460929D01*
X11505643Y-18446643D01*
X11491357Y-18418072D01*
X11477071Y-18360929D01*
X11477071Y-18289500D01*
X11491357Y-18232357D01*
X11505643Y-18203786D01*
X11519928Y-18189500D01*
X11548500Y-18175214D01*
X11777071Y-18446643D02*
X11791357Y-18460929D01*
X11777071Y-18475214D01*
X11762786Y-18460929D01*
X11777071Y-18446643D01*
X11777071Y-18475214D01*
X12077071Y-18475214D02*
X11905643Y-18475214D01*
X11991357Y-18475214D02*
X11991357Y-18175214D01*
X11962786Y-18218072D01*
X11934214Y-18246643D01*
X11905643Y-18260929D01*
X12191357Y-18203786D02*
X12205643Y-18189500D01*
X12234214Y-18175214D01*
X12305643Y-18175214D01*
X12334214Y-18189500D01*
X12348500Y-18203786D01*
X12362786Y-18232357D01*
X12362786Y-18260929D01*
X12348500Y-18303786D01*
X12177071Y-18475214D01*
X12362786Y-18475214D01*
X12619928Y-18175214D02*
X12562786Y-18175214D01*
X12534214Y-18189500D01*
X12519928Y-18203786D01*
X12491357Y-18246643D01*
X12477071Y-18303786D01*
X12477071Y-18418072D01*
X12491357Y-18446643D01*
X12505643Y-18460929D01*
X12534214Y-18475214D01*
X12591357Y-18475214D01*
X12619928Y-18460929D01*
X12634214Y-18446643D01*
X12648500Y-18418072D01*
X12648500Y-18346643D01*
X12634214Y-18318072D01*
X12619928Y-18303786D01*
X12591357Y-18289500D01*
X12534214Y-18289500D01*
X12505643Y-18303786D01*
X12491357Y-18318072D01*
X12477071Y-18346643D01*
X12762786Y-18175214D02*
X12762786Y-18232357D01*
X12877071Y-18175214D02*
X12877071Y-18232357D01*
X13319928Y-18589500D02*
X13305643Y-18575214D01*
X13277071Y-18532357D01*
X13262786Y-18503786D01*
X13248500Y-18460929D01*
X13234214Y-18389500D01*
X13234214Y-18332357D01*
X13248500Y-18260929D01*
X13262786Y-18218072D01*
X13277071Y-18189500D01*
X13305643Y-18146643D01*
X13319928Y-18132357D01*
X13419928Y-18203786D02*
X13434214Y-18189500D01*
X13462786Y-18175214D01*
X13534214Y-18175214D01*
X13562786Y-18189500D01*
X13577071Y-18203786D01*
X13591357Y-18232357D01*
X13591357Y-18260929D01*
X13577071Y-18303786D01*
X13405643Y-18475214D01*
X13591357Y-18475214D01*
X13948500Y-18475214D02*
X13948500Y-18175214D01*
X14077071Y-18475214D02*
X14077071Y-18318072D01*
X14062786Y-18289500D01*
X14034214Y-18275214D01*
X13991357Y-18275214D01*
X13962786Y-18289500D01*
X13948500Y-18303786D01*
X14262786Y-18475214D02*
X14234214Y-18460929D01*
X14219928Y-18446643D01*
X14205643Y-18418072D01*
X14205643Y-18332357D01*
X14219928Y-18303786D01*
X14234214Y-18289500D01*
X14262786Y-18275214D01*
X14305643Y-18275214D01*
X14334214Y-18289500D01*
X14348500Y-18303786D01*
X14362786Y-18332357D01*
X14362786Y-18418072D01*
X14348500Y-18446643D01*
X14334214Y-18460929D01*
X14305643Y-18475214D01*
X14262786Y-18475214D01*
X14534214Y-18475214D02*
X14505643Y-18460929D01*
X14491357Y-18432357D01*
X14491357Y-18175214D01*
X14762786Y-18460929D02*
X14734214Y-18475214D01*
X14677071Y-18475214D01*
X14648500Y-18460929D01*
X14634214Y-18432357D01*
X14634214Y-18318072D01*
X14648500Y-18289500D01*
X14677071Y-18275214D01*
X14734214Y-18275214D01*
X14762786Y-18289500D01*
X14777071Y-18318072D01*
X14777071Y-18346643D01*
X14634214Y-18375214D01*
X14891357Y-18460929D02*
X14919928Y-18475214D01*
X14977071Y-18475214D01*
X15005643Y-18460929D01*
X15019928Y-18432357D01*
X15019928Y-18418072D01*
X15005643Y-18389500D01*
X14977071Y-18375214D01*
X14934214Y-18375214D01*
X14905643Y-18360929D01*
X14891357Y-18332357D01*
X14891357Y-18318072D01*
X14905643Y-18289500D01*
X14934214Y-18275214D01*
X14977071Y-18275214D01*
X15005643Y-18289500D01*
X15119928Y-18589500D02*
X15134214Y-18575214D01*
X15162786Y-18532357D01*
X15177071Y-18503786D01*
X15191357Y-18460929D01*
X15205643Y-18389500D01*
X15205643Y-18332357D01*
X15191357Y-18260929D01*
X15177071Y-18218072D01*
X15162786Y-18189500D01*
X15134214Y-18146643D01*
X15119928Y-18132357D01*
X15662786Y-18589500D02*
X15648500Y-18575214D01*
X15619928Y-18532357D01*
X15605643Y-18503786D01*
X15591357Y-18460929D01*
X15577071Y-18389500D01*
X15577071Y-18332357D01*
X15591357Y-18260929D01*
X15605643Y-18218072D01*
X15619928Y-18189500D01*
X15648500Y-18146643D01*
X15662786Y-18132357D01*
X15777071Y-18275214D02*
X15777071Y-18475214D01*
X15777071Y-18303786D02*
X15791357Y-18289500D01*
X15819928Y-18275214D01*
X15862786Y-18275214D01*
X15891357Y-18289500D01*
X15905643Y-18318072D01*
X15905643Y-18475214D01*
X16091357Y-18475214D02*
X16062786Y-18460929D01*
X16048500Y-18446643D01*
X16034214Y-18418072D01*
X16034214Y-18332357D01*
X16048500Y-18303786D01*
X16062786Y-18289500D01*
X16091357Y-18275214D01*
X16134214Y-18275214D01*
X16162786Y-18289500D01*
X16177071Y-18303786D01*
X16191357Y-18332357D01*
X16191357Y-18418072D01*
X16177071Y-18446643D01*
X16162786Y-18460929D01*
X16134214Y-18475214D01*
X16091357Y-18475214D01*
X16277071Y-18275214D02*
X16391357Y-18275214D01*
X16319928Y-18175214D02*
X16319928Y-18432357D01*
X16334214Y-18460929D01*
X16362786Y-18475214D01*
X16391357Y-18475214D01*
X16719928Y-18275214D02*
X16719928Y-18575214D01*
X16719928Y-18289500D02*
X16748500Y-18275214D01*
X16805643Y-18275214D01*
X16834214Y-18289500D01*
X16848500Y-18303786D01*
X16862786Y-18332357D01*
X16862786Y-18418072D01*
X16848500Y-18446643D01*
X16834214Y-18460929D01*
X16805643Y-18475214D01*
X16748500Y-18475214D01*
X16719928Y-18460929D01*
X17034214Y-18475214D02*
X17005643Y-18460929D01*
X16991357Y-18432357D01*
X16991357Y-18175214D01*
X17277071Y-18475214D02*
X17277071Y-18318072D01*
X17262786Y-18289500D01*
X17234214Y-18275214D01*
X17177071Y-18275214D01*
X17148500Y-18289500D01*
X17277071Y-18460929D02*
X17248500Y-18475214D01*
X17177071Y-18475214D01*
X17148500Y-18460929D01*
X17134214Y-18432357D01*
X17134214Y-18403786D01*
X17148500Y-18375214D01*
X17177071Y-18360929D01*
X17248500Y-18360929D01*
X17277071Y-18346643D01*
X17377071Y-18275214D02*
X17491357Y-18275214D01*
X17419928Y-18175214D02*
X17419928Y-18432357D01*
X17434214Y-18460929D01*
X17462786Y-18475214D01*
X17491357Y-18475214D01*
X17705643Y-18460929D02*
X17677071Y-18475214D01*
X17619928Y-18475214D01*
X17591357Y-18460929D01*
X17577071Y-18432357D01*
X17577071Y-18318072D01*
X17591357Y-18289500D01*
X17619928Y-18275214D01*
X17677071Y-18275214D01*
X17705643Y-18289500D01*
X17719928Y-18318072D01*
X17719928Y-18346643D01*
X17577071Y-18375214D01*
X17977071Y-18475214D02*
X17977071Y-18175214D01*
X17977071Y-18460929D02*
X17948500Y-18475214D01*
X17891357Y-18475214D01*
X17862786Y-18460929D01*
X17848500Y-18446643D01*
X17834214Y-18418072D01*
X17834214Y-18332357D01*
X17848500Y-18303786D01*
X17862786Y-18289500D01*
X17891357Y-18275214D01*
X17948500Y-18275214D01*
X17977071Y-18289500D01*
X18091357Y-18589500D02*
X18105643Y-18575214D01*
X18134214Y-18532357D01*
X18148500Y-18503786D01*
X18162786Y-18460929D01*
X18177071Y-18389500D01*
X18177071Y-18332357D01*
X18162786Y-18260929D01*
X18148500Y-18218072D01*
X18134214Y-18189500D01*
X18105643Y-18146643D01*
X18091357Y-18132357D01*
M02*
