M48
; DRILL file {KiCad (5.1.2-1)-1} date Sunday, April 26, 2020 at 04:50:09 PM
; FORMAT={3:3/ absolute / metric / suppress leading zeros}
; #@! TF.CreationDate,2020-04-26T16:50:09-07:00
; #@! TF.GenerationSoftware,Kicad,Pcbnew,(5.1.2-1)-1
FMAT,2
METRIC,TZ
T1C0.400
T2C0.800
T3C0.900
T4C1.100
T5C2.000
T6C0.900
T7C1.100
T8C3.200
%
G90
G05
T1
X96520Y-144780
X102870Y-134620
X105410Y-144780
X107950Y-129540
X107950Y-130810
X107950Y-134620
X107950Y-135890
X109220Y-133350
X111760Y-129765
X113030Y-125730
X113030Y-130810
X113030Y-137160
X113030Y-138430
X113030Y-140970
X114300Y-129540
X128270Y-120650
X128270Y-127000
X128270Y-144780
X129540Y-121920
X129540Y-132080
X129540Y-138430
X130810Y-127000
X130810Y-130810
X133350Y-114300
X133350Y-125730
X133350Y-133350
X138430Y-120650
X138430Y-124460
X139700Y-130810
X139700Y-133350
X139700Y-139700
X140970Y-110490
X140970Y-121920
X142240Y-135890
X143510Y-124460
X143901Y-131814
X144780Y-133350
X144780Y-137160
X144780Y-144780
X145729Y-131971
X147320Y-129540
X148590Y-133350
X149860Y-125730
X149860Y-133350
X152400Y-134620
X154940Y-132080
X154940Y-134620
X154940Y-139700
X160020Y-134620
X160020Y-139700
X163830Y-123190
T2
X167640Y-142240
X167640Y-137160
T4
X157480Y-125730
X167640Y-125730
T5
X91440Y-111760
X163440Y-111760
X123190Y-125730
X123190Y-143510
T6
X130580Y-142570
X133580Y-142570
T7
X93260Y-129780
X93260Y-134380
T8
X100085Y-111760
X155695Y-111760
T3
G00X94060Y-126380
M15
G01X92460Y-126380
M16
G05
G00X94060Y-137780
M15
G01X92460Y-137780
M16
G05
T0
M30
