%TF.GenerationSoftware,KiCad,Pcbnew,(5.1.2-1)-1*%
%TF.CreationDate,2020-04-26T16:50:05-07:00*%
%TF.ProjectId,Power Project,506f7765-7220-4507-926f-6a6563742e6b,rev?*%
%TF.SameCoordinates,Original*%
%TF.FileFunction,Legend,Bot*%
%TF.FilePolarity,Positive*%
%FSLAX46Y46*%
G04 Gerber Fmt 4.6, Leading zero omitted, Abs format (unit mm)*
G04 Created by KiCad (PCBNEW (5.1.2-1)-1) date 2020-04-26 16:50:05*
%MOMM*%
%LPD*%
G04 APERTURE LIST*
%ADD10C,0.150000*%
%ADD11C,0.050000*%
G04 APERTURE END LIST*
D10*
X168574404Y-103387380D02*
X168574404Y-102387380D01*
X168193452Y-102387380D01*
X168098214Y-102435000D01*
X168050595Y-102482619D01*
X168002976Y-102577857D01*
X168002976Y-102720714D01*
X168050595Y-102815952D01*
X168098214Y-102863571D01*
X168193452Y-102911190D01*
X168574404Y-102911190D01*
X167574404Y-103387380D02*
X167574404Y-102387380D01*
X167145833Y-103387380D02*
X167145833Y-102863571D01*
X167193452Y-102768333D01*
X167288690Y-102720714D01*
X167431547Y-102720714D01*
X167526785Y-102768333D01*
X167574404Y-102815952D01*
X166526785Y-103387380D02*
X166622023Y-103339761D01*
X166669642Y-103292142D01*
X166717261Y-103196904D01*
X166717261Y-102911190D01*
X166669642Y-102815952D01*
X166622023Y-102768333D01*
X166526785Y-102720714D01*
X166383928Y-102720714D01*
X166288690Y-102768333D01*
X166241071Y-102815952D01*
X166193452Y-102911190D01*
X166193452Y-103196904D01*
X166241071Y-103292142D01*
X166288690Y-103339761D01*
X166383928Y-103387380D01*
X166526785Y-103387380D01*
X165764880Y-102720714D02*
X165764880Y-103387380D01*
X165764880Y-102815952D02*
X165717261Y-102768333D01*
X165622023Y-102720714D01*
X165479166Y-102720714D01*
X165383928Y-102768333D01*
X165336309Y-102863571D01*
X165336309Y-103387380D01*
X164431547Y-102720714D02*
X164431547Y-103530238D01*
X164479166Y-103625476D01*
X164526785Y-103673095D01*
X164622023Y-103720714D01*
X164764880Y-103720714D01*
X164860119Y-103673095D01*
X164431547Y-103339761D02*
X164526785Y-103387380D01*
X164717261Y-103387380D01*
X164812500Y-103339761D01*
X164860119Y-103292142D01*
X164907738Y-103196904D01*
X164907738Y-102911190D01*
X164860119Y-102815952D01*
X164812500Y-102768333D01*
X164717261Y-102720714D01*
X164526785Y-102720714D01*
X164431547Y-102768333D01*
X163193452Y-103387380D02*
X163193452Y-102387380D01*
X162812500Y-102387380D01*
X162717261Y-102435000D01*
X162669642Y-102482619D01*
X162622023Y-102577857D01*
X162622023Y-102720714D01*
X162669642Y-102815952D01*
X162717261Y-102863571D01*
X162812500Y-102911190D01*
X163193452Y-102911190D01*
X162193452Y-103387380D02*
X162193452Y-102387380D01*
X161764880Y-103387380D02*
X161764880Y-102863571D01*
X161812500Y-102768333D01*
X161907738Y-102720714D01*
X162050595Y-102720714D01*
X162145833Y-102768333D01*
X162193452Y-102815952D01*
X160860119Y-103387380D02*
X160860119Y-102863571D01*
X160907738Y-102768333D01*
X161002976Y-102720714D01*
X161193452Y-102720714D01*
X161288690Y-102768333D01*
X160860119Y-103339761D02*
X160955357Y-103387380D01*
X161193452Y-103387380D01*
X161288690Y-103339761D01*
X161336309Y-103244523D01*
X161336309Y-103149285D01*
X161288690Y-103054047D01*
X161193452Y-103006428D01*
X160955357Y-103006428D01*
X160860119Y-102958809D01*
X160383928Y-103387380D02*
X160383928Y-102720714D01*
X160383928Y-102815952D02*
X160336309Y-102768333D01*
X160241071Y-102720714D01*
X160098214Y-102720714D01*
X160002976Y-102768333D01*
X159955357Y-102863571D01*
X159955357Y-103387380D01*
X159955357Y-102863571D02*
X159907738Y-102768333D01*
X159812500Y-102720714D01*
X159669642Y-102720714D01*
X159574404Y-102768333D01*
X159526785Y-102863571D01*
X159526785Y-103387380D01*
X168574404Y-104513571D02*
X168241071Y-104513571D01*
X168098214Y-105037380D02*
X168574404Y-105037380D01*
X168574404Y-104037380D01*
X168098214Y-104037380D01*
X167669642Y-105037380D02*
X167669642Y-104037380D01*
X167098214Y-105037380D01*
X167098214Y-104037380D01*
X166098214Y-104085000D02*
X166193452Y-104037380D01*
X166336309Y-104037380D01*
X166479166Y-104085000D01*
X166574404Y-104180238D01*
X166622023Y-104275476D01*
X166669642Y-104465952D01*
X166669642Y-104608809D01*
X166622023Y-104799285D01*
X166574404Y-104894523D01*
X166479166Y-104989761D01*
X166336309Y-105037380D01*
X166241071Y-105037380D01*
X166098214Y-104989761D01*
X166050595Y-104942142D01*
X166050595Y-104608809D01*
X166241071Y-104608809D01*
X165050595Y-105037380D02*
X165383928Y-104561190D01*
X165622023Y-105037380D02*
X165622023Y-104037380D01*
X165241071Y-104037380D01*
X165145833Y-104085000D01*
X165098214Y-104132619D01*
X165050595Y-104227857D01*
X165050595Y-104370714D01*
X165098214Y-104465952D01*
X165145833Y-104513571D01*
X165241071Y-104561190D01*
X165622023Y-104561190D01*
X164193452Y-104370714D02*
X164193452Y-105037380D01*
X164431547Y-103989761D02*
X164669642Y-104704047D01*
X164050595Y-104704047D01*
X163241071Y-104037380D02*
X163431547Y-104037380D01*
X163526785Y-104085000D01*
X163574404Y-104132619D01*
X163669642Y-104275476D01*
X163717261Y-104465952D01*
X163717261Y-104846904D01*
X163669642Y-104942142D01*
X163622023Y-104989761D01*
X163526785Y-105037380D01*
X163336309Y-105037380D01*
X163241071Y-104989761D01*
X163193452Y-104942142D01*
X163145833Y-104846904D01*
X163145833Y-104608809D01*
X163193452Y-104513571D01*
X163241071Y-104465952D01*
X163336309Y-104418333D01*
X163526785Y-104418333D01*
X163622023Y-104465952D01*
X163669642Y-104513571D01*
X163717261Y-104608809D01*
X162526785Y-104037380D02*
X162431547Y-104037380D01*
X162336309Y-104085000D01*
X162288690Y-104132619D01*
X162241071Y-104227857D01*
X162193452Y-104418333D01*
X162193452Y-104656428D01*
X162241071Y-104846904D01*
X162288690Y-104942142D01*
X162336309Y-104989761D01*
X162431547Y-105037380D01*
X162526785Y-105037380D01*
X162622023Y-104989761D01*
X162669642Y-104942142D01*
X162717261Y-104846904D01*
X162764880Y-104656428D01*
X162764880Y-104418333D01*
X162717261Y-104227857D01*
X162669642Y-104132619D01*
X162622023Y-104085000D01*
X162526785Y-104037380D01*
X168622023Y-106639761D02*
X168479166Y-106687380D01*
X168241071Y-106687380D01*
X168145833Y-106639761D01*
X168098214Y-106592142D01*
X168050595Y-106496904D01*
X168050595Y-106401666D01*
X168098214Y-106306428D01*
X168145833Y-106258809D01*
X168241071Y-106211190D01*
X168431547Y-106163571D01*
X168526785Y-106115952D01*
X168574404Y-106068333D01*
X168622023Y-105973095D01*
X168622023Y-105877857D01*
X168574404Y-105782619D01*
X168526785Y-105735000D01*
X168431547Y-105687380D01*
X168193452Y-105687380D01*
X168050595Y-105735000D01*
X167479166Y-106687380D02*
X167574404Y-106639761D01*
X167622023Y-106592142D01*
X167669642Y-106496904D01*
X167669642Y-106211190D01*
X167622023Y-106115952D01*
X167574404Y-106068333D01*
X167479166Y-106020714D01*
X167336309Y-106020714D01*
X167241071Y-106068333D01*
X167193452Y-106115952D01*
X167145833Y-106211190D01*
X167145833Y-106496904D01*
X167193452Y-106592142D01*
X167241071Y-106639761D01*
X167336309Y-106687380D01*
X167479166Y-106687380D01*
X166574404Y-106687380D02*
X166669642Y-106639761D01*
X166717261Y-106544523D01*
X166717261Y-105687380D01*
X165764880Y-106687380D02*
X165764880Y-106163571D01*
X165812500Y-106068333D01*
X165907738Y-106020714D01*
X166098214Y-106020714D01*
X166193452Y-106068333D01*
X165764880Y-106639761D02*
X165860119Y-106687380D01*
X166098214Y-106687380D01*
X166193452Y-106639761D01*
X166241071Y-106544523D01*
X166241071Y-106449285D01*
X166193452Y-106354047D01*
X166098214Y-106306428D01*
X165860119Y-106306428D01*
X165764880Y-106258809D01*
X165288690Y-106687380D02*
X165288690Y-106020714D01*
X165288690Y-106211190D02*
X165241071Y-106115952D01*
X165193452Y-106068333D01*
X165098214Y-106020714D01*
X165002976Y-106020714D01*
X163907738Y-106687380D02*
X163907738Y-105687380D01*
X163526785Y-105687380D01*
X163431547Y-105735000D01*
X163383928Y-105782619D01*
X163336309Y-105877857D01*
X163336309Y-106020714D01*
X163383928Y-106115952D01*
X163431547Y-106163571D01*
X163526785Y-106211190D01*
X163907738Y-106211190D01*
X162479166Y-106687380D02*
X162479166Y-106163571D01*
X162526785Y-106068333D01*
X162622023Y-106020714D01*
X162812500Y-106020714D01*
X162907738Y-106068333D01*
X162479166Y-106639761D02*
X162574404Y-106687380D01*
X162812500Y-106687380D01*
X162907738Y-106639761D01*
X162955357Y-106544523D01*
X162955357Y-106449285D01*
X162907738Y-106354047D01*
X162812500Y-106306428D01*
X162574404Y-106306428D01*
X162479166Y-106258809D01*
X162002976Y-106020714D02*
X162002976Y-106687380D01*
X162002976Y-106115952D02*
X161955357Y-106068333D01*
X161860119Y-106020714D01*
X161717261Y-106020714D01*
X161622023Y-106068333D01*
X161574404Y-106163571D01*
X161574404Y-106687380D01*
X160717261Y-106639761D02*
X160812500Y-106687380D01*
X161002976Y-106687380D01*
X161098214Y-106639761D01*
X161145833Y-106544523D01*
X161145833Y-106163571D01*
X161098214Y-106068333D01*
X161002976Y-106020714D01*
X160812500Y-106020714D01*
X160717261Y-106068333D01*
X160669642Y-106163571D01*
X160669642Y-106258809D01*
X161145833Y-106354047D01*
X160098214Y-106687380D02*
X160193452Y-106639761D01*
X160241071Y-106544523D01*
X160241071Y-105687380D01*
X158383928Y-106592142D02*
X158431547Y-106639761D01*
X158574404Y-106687380D01*
X158669642Y-106687380D01*
X158812500Y-106639761D01*
X158907738Y-106544523D01*
X158955357Y-106449285D01*
X159002976Y-106258809D01*
X159002976Y-106115952D01*
X158955357Y-105925476D01*
X158907738Y-105830238D01*
X158812500Y-105735000D01*
X158669642Y-105687380D01*
X158574404Y-105687380D01*
X158431547Y-105735000D01*
X158383928Y-105782619D01*
X157955357Y-106687380D02*
X157955357Y-105687380D01*
X157526785Y-106687380D02*
X157526785Y-106163571D01*
X157574404Y-106068333D01*
X157669642Y-106020714D01*
X157812500Y-106020714D01*
X157907738Y-106068333D01*
X157955357Y-106115952D01*
X156622023Y-106687380D02*
X156622023Y-106163571D01*
X156669642Y-106068333D01*
X156764880Y-106020714D01*
X156955357Y-106020714D01*
X157050595Y-106068333D01*
X156622023Y-106639761D02*
X156717261Y-106687380D01*
X156955357Y-106687380D01*
X157050595Y-106639761D01*
X157098214Y-106544523D01*
X157098214Y-106449285D01*
X157050595Y-106354047D01*
X156955357Y-106306428D01*
X156717261Y-106306428D01*
X156622023Y-106258809D01*
X156145833Y-106687380D02*
X156145833Y-106020714D01*
X156145833Y-106211190D02*
X156098214Y-106115952D01*
X156050595Y-106068333D01*
X155955357Y-106020714D01*
X155860119Y-106020714D01*
X155098214Y-106020714D02*
X155098214Y-106830238D01*
X155145833Y-106925476D01*
X155193452Y-106973095D01*
X155288690Y-107020714D01*
X155431547Y-107020714D01*
X155526785Y-106973095D01*
X155098214Y-106639761D02*
X155193452Y-106687380D01*
X155383928Y-106687380D01*
X155479166Y-106639761D01*
X155526785Y-106592142D01*
X155574404Y-106496904D01*
X155574404Y-106211190D01*
X155526785Y-106115952D01*
X155479166Y-106068333D01*
X155383928Y-106020714D01*
X155193452Y-106020714D01*
X155098214Y-106068333D01*
X154241071Y-106639761D02*
X154336309Y-106687380D01*
X154526785Y-106687380D01*
X154622023Y-106639761D01*
X154669642Y-106544523D01*
X154669642Y-106163571D01*
X154622023Y-106068333D01*
X154526785Y-106020714D01*
X154336309Y-106020714D01*
X154241071Y-106068333D01*
X154193452Y-106163571D01*
X154193452Y-106258809D01*
X154669642Y-106354047D01*
X153764880Y-106687380D02*
X153764880Y-106020714D01*
X153764880Y-106211190D02*
X153717261Y-106115952D01*
X153669642Y-106068333D01*
X153574404Y-106020714D01*
X153479166Y-106020714D01*
X152526785Y-105687380D02*
X152193452Y-106687380D01*
X151860119Y-105687380D01*
X151622023Y-105687380D02*
X151002976Y-105687380D01*
X151336309Y-106068333D01*
X151193452Y-106068333D01*
X151098214Y-106115952D01*
X151050595Y-106163571D01*
X151002976Y-106258809D01*
X151002976Y-106496904D01*
X151050595Y-106592142D01*
X151098214Y-106639761D01*
X151193452Y-106687380D01*
X151479166Y-106687380D01*
X151574404Y-106639761D01*
X151622023Y-106592142D01*
X150574404Y-106592142D02*
X150526785Y-106639761D01*
X150574404Y-106687380D01*
X150622023Y-106639761D01*
X150574404Y-106592142D01*
X150574404Y-106687380D01*
X149907738Y-105687380D02*
X149812500Y-105687380D01*
X149717261Y-105735000D01*
X149669642Y-105782619D01*
X149622023Y-105877857D01*
X149574404Y-106068333D01*
X149574404Y-106306428D01*
X149622023Y-106496904D01*
X149669642Y-106592142D01*
X149717261Y-106639761D01*
X149812500Y-106687380D01*
X149907738Y-106687380D01*
X150002976Y-106639761D01*
X150050595Y-106592142D01*
X150098214Y-106496904D01*
X150145833Y-106306428D01*
X150145833Y-106068333D01*
X150098214Y-105877857D01*
X150050595Y-105782619D01*
X150002976Y-105735000D01*
X149907738Y-105687380D01*
X168622023Y-108289761D02*
X168479166Y-108337380D01*
X168241071Y-108337380D01*
X168145833Y-108289761D01*
X168098214Y-108242142D01*
X168050595Y-108146904D01*
X168050595Y-108051666D01*
X168098214Y-107956428D01*
X168145833Y-107908809D01*
X168241071Y-107861190D01*
X168431547Y-107813571D01*
X168526785Y-107765952D01*
X168574404Y-107718333D01*
X168622023Y-107623095D01*
X168622023Y-107527857D01*
X168574404Y-107432619D01*
X168526785Y-107385000D01*
X168431547Y-107337380D01*
X168193452Y-107337380D01*
X168050595Y-107385000D01*
X167622023Y-107670714D02*
X167622023Y-108670714D01*
X167622023Y-107718333D02*
X167526785Y-107670714D01*
X167336309Y-107670714D01*
X167241071Y-107718333D01*
X167193452Y-107765952D01*
X167145833Y-107861190D01*
X167145833Y-108146904D01*
X167193452Y-108242142D01*
X167241071Y-108289761D01*
X167336309Y-108337380D01*
X167526785Y-108337380D01*
X167622023Y-108289761D01*
X166717261Y-108337380D02*
X166717261Y-107670714D01*
X166717261Y-107861190D02*
X166669642Y-107765952D01*
X166622023Y-107718333D01*
X166526785Y-107670714D01*
X166431547Y-107670714D01*
X166098214Y-108337380D02*
X166098214Y-107670714D01*
X166098214Y-107337380D02*
X166145833Y-107385000D01*
X166098214Y-107432619D01*
X166050595Y-107385000D01*
X166098214Y-107337380D01*
X166098214Y-107432619D01*
X165622023Y-107670714D02*
X165622023Y-108337380D01*
X165622023Y-107765952D02*
X165574404Y-107718333D01*
X165479166Y-107670714D01*
X165336309Y-107670714D01*
X165241071Y-107718333D01*
X165193452Y-107813571D01*
X165193452Y-108337380D01*
X164288690Y-107670714D02*
X164288690Y-108480238D01*
X164336309Y-108575476D01*
X164383928Y-108623095D01*
X164479166Y-108670714D01*
X164622023Y-108670714D01*
X164717261Y-108623095D01*
X164288690Y-108289761D02*
X164383928Y-108337380D01*
X164574404Y-108337380D01*
X164669642Y-108289761D01*
X164717261Y-108242142D01*
X164764880Y-108146904D01*
X164764880Y-107861190D01*
X164717261Y-107765952D01*
X164669642Y-107718333D01*
X164574404Y-107670714D01*
X164383928Y-107670714D01*
X164288690Y-107718333D01*
X163098214Y-107432619D02*
X163050595Y-107385000D01*
X162955357Y-107337380D01*
X162717261Y-107337380D01*
X162622023Y-107385000D01*
X162574404Y-107432619D01*
X162526785Y-107527857D01*
X162526785Y-107623095D01*
X162574404Y-107765952D01*
X163145833Y-108337380D01*
X162526785Y-108337380D01*
X161907738Y-107337380D02*
X161812500Y-107337380D01*
X161717261Y-107385000D01*
X161669642Y-107432619D01*
X161622023Y-107527857D01*
X161574404Y-107718333D01*
X161574404Y-107956428D01*
X161622023Y-108146904D01*
X161669642Y-108242142D01*
X161717261Y-108289761D01*
X161812500Y-108337380D01*
X161907738Y-108337380D01*
X162002976Y-108289761D01*
X162050595Y-108242142D01*
X162098214Y-108146904D01*
X162145833Y-107956428D01*
X162145833Y-107718333D01*
X162098214Y-107527857D01*
X162050595Y-107432619D01*
X162002976Y-107385000D01*
X161907738Y-107337380D01*
X161193452Y-107432619D02*
X161145833Y-107385000D01*
X161050595Y-107337380D01*
X160812500Y-107337380D01*
X160717261Y-107385000D01*
X160669642Y-107432619D01*
X160622023Y-107527857D01*
X160622023Y-107623095D01*
X160669642Y-107765952D01*
X161241071Y-108337380D01*
X160622023Y-108337380D01*
X160002976Y-107337380D02*
X159907738Y-107337380D01*
X159812500Y-107385000D01*
X159764880Y-107432619D01*
X159717261Y-107527857D01*
X159669642Y-107718333D01*
X159669642Y-107956428D01*
X159717261Y-108146904D01*
X159764880Y-108242142D01*
X159812500Y-108289761D01*
X159907738Y-108337380D01*
X160002976Y-108337380D01*
X160098214Y-108289761D01*
X160145833Y-108242142D01*
X160193452Y-108146904D01*
X160241071Y-107956428D01*
X160241071Y-107718333D01*
X160193452Y-107527857D01*
X160145833Y-107432619D01*
X160098214Y-107385000D01*
X160002976Y-107337380D01*
X143492380Y-119832380D02*
X143492380Y-118832380D01*
X143111428Y-118832380D01*
X143016190Y-118880000D01*
X142968571Y-118927619D01*
X142920952Y-119022857D01*
X142920952Y-119165714D01*
X142968571Y-119260952D01*
X143016190Y-119308571D01*
X143111428Y-119356190D01*
X143492380Y-119356190D01*
X141920952Y-119832380D02*
X142254285Y-119356190D01*
X142492380Y-119832380D02*
X142492380Y-118832380D01*
X142111428Y-118832380D01*
X142016190Y-118880000D01*
X141968571Y-118927619D01*
X141920952Y-119022857D01*
X141920952Y-119165714D01*
X141968571Y-119260952D01*
X142016190Y-119308571D01*
X142111428Y-119356190D01*
X142492380Y-119356190D01*
X141540000Y-119546666D02*
X141063809Y-119546666D01*
X141635238Y-119832380D02*
X141301904Y-118832380D01*
X140968571Y-119832380D01*
X140635238Y-119832380D02*
X140635238Y-118832380D01*
X140206666Y-119784761D02*
X140063809Y-119832380D01*
X139825714Y-119832380D01*
X139730476Y-119784761D01*
X139682857Y-119737142D01*
X139635238Y-119641904D01*
X139635238Y-119546666D01*
X139682857Y-119451428D01*
X139730476Y-119403809D01*
X139825714Y-119356190D01*
X140016190Y-119308571D01*
X140111428Y-119260952D01*
X140159047Y-119213333D01*
X140206666Y-119118095D01*
X140206666Y-119022857D01*
X140159047Y-118927619D01*
X140111428Y-118880000D01*
X140016190Y-118832380D01*
X139778095Y-118832380D01*
X139635238Y-118880000D01*
X139206666Y-119308571D02*
X138873333Y-119308571D01*
X138730476Y-119832380D02*
X139206666Y-119832380D01*
X139206666Y-118832380D01*
X138730476Y-118832380D01*
X137682857Y-118832380D02*
X137111428Y-118832380D01*
X137397142Y-119832380D02*
X137397142Y-118832380D01*
X136778095Y-119832380D02*
X136778095Y-118832380D01*
X136778095Y-119308571D02*
X136206666Y-119308571D01*
X136206666Y-119832380D02*
X136206666Y-118832380D01*
X135730476Y-119308571D02*
X135397142Y-119308571D01*
X135254285Y-119832380D02*
X135730476Y-119832380D01*
X135730476Y-118832380D01*
X135254285Y-118832380D01*
X134111428Y-119784761D02*
X133968571Y-119832380D01*
X133730476Y-119832380D01*
X133635238Y-119784761D01*
X133587619Y-119737142D01*
X133540000Y-119641904D01*
X133540000Y-119546666D01*
X133587619Y-119451428D01*
X133635238Y-119403809D01*
X133730476Y-119356190D01*
X133920952Y-119308571D01*
X134016190Y-119260952D01*
X134063809Y-119213333D01*
X134111428Y-119118095D01*
X134111428Y-119022857D01*
X134063809Y-118927619D01*
X134016190Y-118880000D01*
X133920952Y-118832380D01*
X133682857Y-118832380D01*
X133540000Y-118880000D01*
X133111428Y-118832380D02*
X133111428Y-119641904D01*
X133063809Y-119737142D01*
X133016190Y-119784761D01*
X132920952Y-119832380D01*
X132730476Y-119832380D01*
X132635238Y-119784761D01*
X132587619Y-119737142D01*
X132540000Y-119641904D01*
X132540000Y-118832380D01*
X132063809Y-119832380D02*
X132063809Y-118832380D01*
X131492380Y-119832380D01*
X131492380Y-118832380D01*
X130254285Y-119832380D02*
X130254285Y-118832380D01*
X129920952Y-119546666D01*
X129587619Y-118832380D01*
X129587619Y-119832380D01*
X128920952Y-119356190D02*
X128920952Y-119832380D01*
X129254285Y-118832380D02*
X128920952Y-119356190D01*
X128587619Y-118832380D01*
X127159047Y-119308571D02*
X127492380Y-119308571D01*
X127492380Y-119832380D02*
X127492380Y-118832380D01*
X127016190Y-118832380D01*
X126635238Y-119308571D02*
X126301904Y-119308571D01*
X126159047Y-119832380D02*
X126635238Y-119832380D01*
X126635238Y-118832380D01*
X126159047Y-118832380D01*
X125254285Y-119832380D02*
X125730476Y-119832380D01*
X125730476Y-118832380D01*
X124444761Y-119832380D02*
X124920952Y-119832380D01*
X124920952Y-118832380D01*
X123920952Y-118832380D02*
X123730476Y-118832380D01*
X123635238Y-118880000D01*
X123540000Y-118975238D01*
X123492380Y-119165714D01*
X123492380Y-119499047D01*
X123540000Y-119689523D01*
X123635238Y-119784761D01*
X123730476Y-119832380D01*
X123920952Y-119832380D01*
X124016190Y-119784761D01*
X124111428Y-119689523D01*
X124159047Y-119499047D01*
X124159047Y-119165714D01*
X124111428Y-118975238D01*
X124016190Y-118880000D01*
X123920952Y-118832380D01*
X123159047Y-118832380D02*
X122920952Y-119832380D01*
X122730476Y-119118095D01*
X122540000Y-119832380D01*
X122301904Y-118832380D01*
X121206666Y-119784761D02*
X121063809Y-119832380D01*
X120825714Y-119832380D01*
X120730476Y-119784761D01*
X120682857Y-119737142D01*
X120635238Y-119641904D01*
X120635238Y-119546666D01*
X120682857Y-119451428D01*
X120730476Y-119403809D01*
X120825714Y-119356190D01*
X121016190Y-119308571D01*
X121111428Y-119260952D01*
X121159047Y-119213333D01*
X121206666Y-119118095D01*
X121206666Y-119022857D01*
X121159047Y-118927619D01*
X121111428Y-118880000D01*
X121016190Y-118832380D01*
X120778095Y-118832380D01*
X120635238Y-118880000D01*
X120016190Y-118832380D02*
X119825714Y-118832380D01*
X119730476Y-118880000D01*
X119635238Y-118975238D01*
X119587619Y-119165714D01*
X119587619Y-119499047D01*
X119635238Y-119689523D01*
X119730476Y-119784761D01*
X119825714Y-119832380D01*
X120016190Y-119832380D01*
X120111428Y-119784761D01*
X120206666Y-119689523D01*
X120254285Y-119499047D01*
X120254285Y-119165714D01*
X120206666Y-118975238D01*
X120111428Y-118880000D01*
X120016190Y-118832380D01*
X118682857Y-119832380D02*
X119159047Y-119832380D01*
X119159047Y-118832380D01*
X118397142Y-119546666D02*
X117920952Y-119546666D01*
X118492380Y-119832380D02*
X118159047Y-118832380D01*
X117825714Y-119832380D01*
X117492380Y-119832380D02*
X117492380Y-118832380D01*
X116444761Y-119832380D02*
X116778095Y-119356190D01*
X117016190Y-119832380D02*
X117016190Y-118832380D01*
X116635238Y-118832380D01*
X116540000Y-118880000D01*
X116492380Y-118927619D01*
X116444761Y-119022857D01*
X116444761Y-119165714D01*
X116492380Y-119260952D01*
X116540000Y-119308571D01*
X116635238Y-119356190D01*
X117016190Y-119356190D01*
X116016190Y-119308571D02*
X115682857Y-119308571D01*
X115540000Y-119832380D02*
X116016190Y-119832380D01*
X116016190Y-118832380D01*
X115540000Y-118832380D01*
D11*
X86360000Y-100330000D02*
X86360000Y-101600000D01*
X171450000Y-100330000D02*
X86360000Y-100330000D01*
X171450000Y-146050000D02*
X171450000Y-100330000D01*
X86360000Y-146050000D02*
X171450000Y-146050000D01*
X86360000Y-144780000D02*
X86360000Y-146050000D01*
X86360000Y-143510000D02*
X86360000Y-144780000D01*
X86360000Y-101600000D02*
X86360000Y-143510000D01*
M02*
